<svg width="225" height="42" viewBox="0 0 225 42" fill="none" xmlns="http://www.w3.org/2000/svg">
<g clip-path="url(#clip0_56_361)">
<path d="M221.463 33.173C220.467 33.173 219.625 32.8354 218.937 32.1604C218.263 31.4706 217.926 30.6342 217.926 29.6509C217.926 28.6677 218.263 27.8386 218.937 27.1635C219.625 26.4738 220.467 26.1289 221.463 26.1289C222.459 26.1289 223.294 26.4738 223.968 27.1635C224.657 27.8386 225.001 28.6677 225.001 29.6509C225.001 30.6342 224.657 31.4706 223.968 32.1604C223.294 32.8354 222.459 33.173 221.463 33.173Z" fill="#E95E49"/>
<path d="M192.892 32.7987V29.1226L205.524 13.2076V12.9874H193.287V8.18868H212.599V12.173L200.581 27.7799V28H213.016V32.7987H192.892Z" fill="#A09F9F"/>
<path d="M178.71 33.283C176.25 33.283 174.126 32.7694 172.339 31.7421C170.552 30.7002 169.175 29.2327 168.209 27.3396C167.257 25.4465 166.781 23.2159 166.781 20.6478C166.781 18.109 167.257 15.8857 168.209 13.978C169.161 12.0556 170.501 10.5587 172.229 9.48742C173.958 8.41614 175.993 7.8805 178.337 7.8805C179.845 7.8805 181.274 8.12264 182.621 8.60692C183.983 9.09119 185.184 9.83962 186.224 10.8522C187.279 11.8648 188.106 13.1562 188.707 14.7264C189.307 16.282 189.607 18.1384 189.607 20.2956V22.1006H169.483V18.2044H186.729L184.027 19.3491C184.027 17.9549 183.815 16.7442 183.39 15.717C182.965 14.675 182.335 13.8606 181.501 13.2736C180.666 12.6866 179.626 12.3931 178.381 12.3931C177.136 12.3931 176.074 12.6866 175.195 13.2736C174.316 13.8606 173.65 14.653 173.196 15.6509C172.742 16.6342 172.515 17.7348 172.515 18.9528V21.6604C172.515 23.1572 172.771 24.4413 173.284 25.5126C173.811 26.5692 174.543 27.3763 175.481 27.934C176.433 28.4916 177.539 28.7704 178.798 28.7704C179.618 28.7704 180.365 28.653 181.039 28.4182C181.728 28.1834 182.313 27.8312 182.797 27.3616C183.295 26.8774 183.676 26.283 183.939 25.5786L189.344 26.217C188.992 27.6405 188.34 28.8878 187.388 29.9591C186.451 31.0157 185.243 31.8375 183.763 32.4245C182.299 32.9969 180.614 33.283 178.71 33.283Z" fill="#A09F9F"/>
<path d="M141.021 42V8.18868H146.69V12.261H147.041C147.334 11.674 147.752 11.043 148.293 10.3679C148.835 9.67819 149.568 9.09119 150.49 8.60692C151.428 8.12264 152.622 7.8805 154.072 7.8805C155.961 7.8805 157.667 8.36478 159.191 9.33333C160.714 10.3019 161.922 11.7254 162.816 13.6038C163.724 15.4822 164.178 17.7935 164.178 20.5377C164.178 23.2379 163.738 25.5346 162.859 27.4277C161.981 29.3208 160.772 30.7662 159.234 31.7641C157.711 32.7474 155.983 33.239 154.05 33.239C152.658 33.239 151.494 33.0042 150.556 32.5346C149.634 32.0503 148.887 31.478 148.315 30.8176C147.759 30.1426 147.334 29.5042 147.041 28.9025H146.8V42H141.021ZM152.468 28.4843C153.742 28.4843 154.804 28.1394 155.653 27.4497C156.518 26.76 157.169 25.8134 157.609 24.6101C158.048 23.4067 158.268 22.0419 158.268 20.5157C158.268 18.9895 158.048 17.6321 157.609 16.4434C157.169 15.2547 156.525 14.3228 155.675 13.6478C154.826 12.9727 153.757 12.6352 152.468 12.6352C151.223 12.6352 150.168 12.9581 149.304 13.6038C148.455 14.2495 147.803 15.1667 147.349 16.3553C146.909 17.5293 146.69 18.9161 146.69 20.5157C146.69 22.1006 146.909 23.4948 147.349 24.6981C147.803 25.8868 148.462 26.8187 149.326 27.4937C150.19 28.1541 151.237 28.4843 152.468 28.4843Z" fill="#A09F9F"/>
<path d="M125.61 33.283C123.208 33.283 121.128 32.7547 119.371 31.6981C117.613 30.6415 116.251 29.1593 115.284 27.2516C114.332 25.3438 113.856 23.1279 113.856 20.6038C113.856 18.065 114.332 15.8417 115.284 13.934C116.251 12.0115 117.613 10.522 119.371 9.46541C121.128 8.4088 123.208 7.8805 125.61 7.8805C128.012 7.8805 130.092 8.4088 131.85 9.46541C133.607 10.522 134.969 12.0115 135.936 13.934C136.903 15.8417 137.386 18.065 137.386 20.6038C137.386 23.1279 136.903 25.3438 135.936 27.2516C134.969 29.1593 133.607 30.6415 131.85 31.6981C130.092 32.7547 128.012 33.283 125.61 33.283ZM125.61 28.6163C126.943 28.6163 128.042 28.2641 128.906 27.5597C129.77 26.8407 130.414 25.8721 130.839 24.6541C131.279 23.4361 131.498 22.086 131.498 20.6038C131.498 19.0922 131.279 17.7275 130.839 16.5094C130.414 15.2914 129.77 14.3302 128.906 13.6258C128.042 12.9067 126.943 12.5472 125.61 12.5472C124.307 12.5472 123.216 12.9067 122.337 13.6258C121.458 14.3302 120.799 15.2914 120.36 16.5094C119.935 17.7275 119.722 19.0922 119.722 20.6038C119.722 22.086 119.935 23.4361 120.36 24.6541C120.799 25.8721 121.458 26.8407 122.337 27.5597C123.216 28.2641 124.307 28.6163 125.61 28.6163Z" fill="#A09F9F"/>
<path d="M110.178 0V32.7987H104.399V0H110.178Z" fill="#A09F9F"/>
<path d="M90.3056 33.283C87.8596 33.283 85.7579 32.7474 84.0003 31.6761C82.2427 30.5901 80.8952 29.0933 79.9578 27.1855C79.0204 25.2778 78.5518 23.0839 78.5518 20.6038C78.5518 18.0943 79.0278 15.8857 79.9798 13.978C80.9318 12.0702 82.2866 10.5807 84.0442 9.50943C85.8018 8.42348 87.8743 7.8805 90.2617 7.8805C92.2683 7.8805 94.0405 8.24738 95.5784 8.98113C97.1163 9.71488 98.3392 10.7495 99.2473 12.0849C100.17 13.4057 100.697 14.9539 100.829 16.7296H95.2928C95.1463 15.9371 94.8607 15.2254 94.4359 14.5943C94.0112 13.9633 93.4546 13.4644 92.7662 13.0975C92.0925 12.7306 91.2869 12.5472 90.3496 12.5472C89.1632 12.5472 88.1233 12.87 87.2298 13.5157C86.351 14.1467 85.6627 15.0566 85.1647 16.2453C84.6667 17.434 84.4177 18.8574 84.4177 20.5157C84.4177 22.1887 84.6594 23.6342 85.1427 24.8522C85.626 26.0556 86.3144 26.9874 87.2079 27.6478C88.1013 28.2935 89.1485 28.6163 90.3496 28.6163C91.6238 28.6163 92.7003 28.2421 93.5791 27.4937C94.4726 26.7453 95.0438 25.7107 95.2928 24.3899H100.829C100.697 26.1363 100.185 27.6771 99.2913 29.0126C98.3978 30.348 97.1895 31.3973 95.6663 32.1604C94.143 32.9088 92.3561 33.283 90.3056 33.283Z" fill="#FEFEFE"/>
<path d="M63.9971 32.7987V8.18868H69.5994V12.327H69.863C70.3024 10.8889 71.0714 9.78826 72.1698 9.02516C73.2683 8.24738 74.5206 7.85849 75.9267 7.85849C76.2343 7.85849 76.5858 7.87317 76.9812 7.90252C77.3913 7.93187 77.7282 7.96855 77.9918 8.01258V13.3396C77.7429 13.2516 77.3547 13.1782 76.8274 13.1195C76.3002 13.0608 75.7949 13.0314 75.3115 13.0314C74.2423 13.0314 73.2903 13.2589 72.4555 13.7138C71.6206 14.1688 70.9615 14.7925 70.4782 15.5849C70.0095 16.3774 69.7751 17.3019 69.7751 18.3585V32.7987H63.9971Z" fill="#FEFEFE"/>
<path d="M46.3232 33.305C44.756 33.305 43.3499 33.0262 42.105 32.4685C40.86 31.8962 39.8787 31.0597 39.161 29.9591C38.4433 28.8585 38.0845 27.501 38.0845 25.8868C38.0845 24.5073 38.3408 23.3627 38.8534 22.4528C39.366 21.543 40.0618 20.8166 40.9405 20.2736C41.834 19.7306 42.8373 19.3197 43.9504 19.0409C45.0636 18.7474 46.2133 18.5419 47.3997 18.4245C48.8497 18.2631 50.0214 18.1237 50.9149 18.0063C51.8083 17.8889 52.4527 17.6981 52.8482 17.434C53.2583 17.1698 53.4634 16.7589 53.4634 16.2013V16.0912C53.4634 14.9025 53.1118 13.978 52.4088 13.3176C51.7058 12.6572 50.6805 12.327 49.333 12.327C47.9123 12.327 46.7845 12.6352 45.9497 13.2516C45.1295 13.8679 44.5729 14.5943 44.28 15.4308L38.8974 14.6604C39.3221 13.1635 40.0251 11.9161 41.0065 10.9182C41.9878 9.90566 43.1815 9.14989 44.5875 8.65094C46.0083 8.13731 47.5754 7.8805 49.2891 7.8805C50.4608 7.8805 51.6325 8.01991 52.8043 8.29874C53.976 8.56289 55.0525 9.01782 56.0338 9.66352C57.0151 10.3092 57.7987 11.1751 58.3846 12.261C58.9705 13.347 59.2634 14.7044 59.2634 16.3333V32.7987H53.705V29.4088H53.5293C53.1777 30.0839 52.6798 30.7222 52.0353 31.3239C51.4055 31.9109 50.6146 32.3878 49.6626 32.7547C48.7252 33.1216 47.6121 33.305 46.3232 33.305ZM47.7951 29.0346C48.9669 29.0346 49.9775 28.8071 50.827 28.3522C51.6765 27.8826 52.3356 27.2662 52.8043 26.5031C53.2729 25.7254 53.5073 24.8815 53.5073 23.9717V21.088C53.3169 21.2348 53.0093 21.3742 52.5846 21.5063C52.1598 21.6237 51.6765 21.7337 51.1345 21.8365C50.5926 21.9392 50.058 22.0273 49.5308 22.1006C49.0181 22.174 48.5714 22.2327 48.1906 22.2767C47.3264 22.3941 46.5502 22.5922 45.8618 22.8711C45.188 23.1352 44.6535 23.5021 44.258 23.9717C43.8625 24.4413 43.6648 25.0503 43.6648 25.7987C43.6648 26.87 44.0529 27.6771 44.8292 28.2201C45.6055 28.7631 46.5941 29.0346 47.7951 29.0346Z" fill="#FEFEFE"/>
<path d="M0 32.7987V8.18868H5.51443V12.3931H5.822C6.33463 10.9843 7.18413 9.88365 8.3705 9.09119C9.55687 8.28406 10.9629 7.8805 12.5887 7.8805C14.2584 7.8805 15.6645 8.28406 16.8069 9.09119C17.9493 9.89832 18.7476 10.9989 19.2016 12.3931H19.4653C20.0218 11.0283 20.9446 9.93501 22.2335 9.11321C23.5224 8.2914 25.0602 7.8805 26.8471 7.8805C29.1027 7.8805 30.9408 8.59958 32.3616 10.0377C33.7969 11.4612 34.5146 13.5451 34.5146 16.2893V32.7987H28.7146V17.1698C28.7146 15.6583 28.3045 14.5503 27.4843 13.8459C26.6787 13.1268 25.69 12.7673 24.5183 12.7673C23.1269 12.7673 22.0431 13.2075 21.2668 14.088C20.4905 14.9539 20.1024 16.0692 20.1024 17.434V32.7987H14.3902V16.9497C14.3902 15.673 14.0167 14.6604 13.2698 13.9119C12.5228 13.1488 11.5342 12.7673 10.3038 12.7673C9.46899 12.7673 8.70737 12.9801 8.01899 13.4057C7.3306 13.8312 6.78135 14.4256 6.37125 15.1887C5.97579 15.9518 5.77806 16.8323 5.77806 17.8302V32.7987H0Z" fill="#FEFEFE"/>
</g>
<defs>
<clipPath id="clip0_56_361">
<rect width="225" height="42" fill="white"/>
</clipPath>
</defs>
</svg>
