<svg width="500" height="500" viewBox="0 0 500 500" fill="none" xmlns="http://www.w3.org/2000/svg">
<rect width="500" height="500" rx="24" fill="#212121"/>
<path d="M124 330.161V209.236H151.096V229.895H152.607C155.126 222.973 159.3 217.565 165.13 213.671C170.959 209.705 177.868 207.722 185.856 207.722C194.061 207.722 200.97 209.705 206.583 213.671C212.197 217.637 216.119 223.045 218.35 229.895H219.645C222.38 223.189 226.914 217.817 233.247 213.779C239.581 209.741 247.137 207.722 255.917 207.722C267 207.722 276.032 211.255 283.013 218.322C290.066 225.316 293.592 235.556 293.592 249.04V330.161H265.093V253.366C265.093 245.939 263.078 240.495 259.048 237.034C255.09 233.501 250.232 231.734 244.474 231.734C237.637 231.734 232.312 233.897 228.497 238.224C224.683 242.478 222.776 247.958 222.776 254.664V330.161H194.709V252.285C194.709 246.011 192.873 241.036 189.203 237.358C185.533 233.609 180.675 231.734 174.629 231.734C170.527 231.734 166.785 232.779 163.402 234.871C160.02 236.962 157.321 239.882 155.306 243.632C153.363 247.381 152.391 251.708 152.391 256.611V330.161H124Z" fill="#FEFEFE"/>
<path d="M331.815 169V330.161H303.42V169H331.815Z" fill="#A09F9F"/>
<path d="M359.025 332C354.13 332 349.992 330.342 346.609 327.025C343.298 323.635 341.642 319.525 341.642 314.694C341.642 309.863 343.298 305.789 346.609 302.472C349.992 299.083 354.13 297.388 359.025 297.388C363.919 297.388 368.022 299.083 371.333 302.472C374.716 305.789 376.407 309.863 376.407 314.694C376.407 319.525 374.716 323.635 371.333 327.025C368.022 330.342 363.919 332 359.025 332Z" fill="#E95E49"/>
</svg>
