<svg width="264" height="80" viewBox="0 0 264 80" fill="none" xmlns="http://www.w3.org/2000/svg">
<g clip-path="url(#clip0_62_755)">
<path d="M56.9916 20.4209C54.6293 23.1869 52.8347 26.2625 51.6815 29.5213C49.2436 24.7096 44.8673 20.7629 39.3117 18.3656C33.7601 20.7624 29.3848 24.7047 26.9419 29.5111C25.7916 26.2582 24.0056 23.1867 21.6562 20.4209C23.0528 18.7939 24.63 17.2807 26.3668 15.9013C30.0842 12.9652 34.4928 10.7086 39.3117 9.27539C44.1256 10.7109 48.5297 12.9673 52.2443 15.9013C53.9939 17.2793 55.5834 18.7925 56.9916 20.4209V20.4209Z" fill="url(#paint0_linear_62_755)"/>
<path d="M0.318116 57.5588C0.660682 55.5923 0.660682 53.5947 0.318116 51.6282C4.31904 54.8287 13.4098 56.3522 21.1914 56.3522C27.5293 56.3522 30.1721 55.1763 30.1721 52.8347C30.1721 49.7058 26.1712 49.3479 16.7133 48.6731C6.30115 47.896 0 46.5053 0 41.1473C0 35.7893 5.65268 33.2534 17.2272 33.2534C23.6351 33.249 30.0143 33.9678 36.1918 35.3905C35.8492 37.2268 35.8492 39.0963 36.1918 40.9326C30.1212 38.7308 23.5874 37.5595 16.9703 37.4867C10.4244 37.4867 7.65926 38.5808 7.65926 40.9633C7.65926 43.8059 11.0607 44.5523 19.7354 45.1249C30.6615 45.8305 37.8436 47.0779 37.8436 52.8041C37.8436 58.0598 32.0686 60.5855 20.543 60.5855C13.6406 60.5804 6.79367 59.5557 0.318116 57.5588V57.5588Z" fill="white"/>
<path d="M51.0206 38.6524C50.8983 45.8101 51.0206 53.0495 51.3999 60.1867H43.7773C44.1199 51.3828 44.1199 42.5278 43.7773 33.7136C47.2824 34.0357 50.8191 34.0357 54.3241 33.7136C60.8496 41.0758 67.6932 48.3255 74.8549 55.4627C74.9894 48.213 74.8548 40.9326 74.4756 33.7136C76.9834 34.0565 79.5413 34.0565 82.0492 33.7136C81.7433 42.5278 81.7922 51.3828 82.1715 60.1867H71.8817C65.2135 52.9064 58.2761 45.6976 51.0206 38.6524Z" fill="white"/>
<path d="M89.4023 33.642C95.1407 33.642 100.549 33.5398 108.624 33.5398C118.657 33.5398 124.15 35.4928 124.15 40.1862C124.15 44.3785 119.685 46.0146 114.191 46.1884V46.6485C120.994 46.7917 126.096 48.6936 126.096 53.2233C126.096 59.6243 115.598 60.381 107.988 60.381C99.1049 60.381 95.2753 60.1663 89.4023 60.1663C89.9162 53.5505 89.9162 40.2884 89.4023 33.642ZM108.673 45.3704C113.897 45.3704 116.454 44.0922 116.454 41.4643C116.454 38.6524 113.64 37.7015 108.673 37.7015C103.705 37.7015 99.3496 37.7015 96.976 37.7015C96.8903 40.043 96.8414 42.5687 96.8903 45.2681C100.5 45.3397 104.537 45.3704 108.673 45.3704ZM97.0616 56.1068C100.414 56.1784 103.008 56.25 108.367 56.25C116.026 56.25 117.935 54.3686 117.935 52.2622C117.935 50.3807 116.026 48.8163 108.673 48.8163C104.537 48.8163 100.5 48.8163 96.8903 48.8163C96.8903 51.301 96.976 53.8675 97.0616 56.1068Z" fill="white"/>
<path d="M156.244 64.512C155.564 64.4898 154.9 64.6834 154.384 65.0539C154.154 65.2277 153.971 65.441 153.849 65.6793C153.726 65.9175 153.667 66.1751 153.674 66.4343C153.663 66.7031 153.72 66.9708 153.842 67.2195C153.965 67.4682 154.149 67.6921 154.384 67.8761C154.891 68.2614 155.559 68.4636 156.244 68.4385C156.913 68.4583 157.564 68.2561 158.055 67.8761C158.274 67.6852 158.443 67.4587 158.553 67.2106C158.662 66.9626 158.709 66.6983 158.691 66.4343C158.696 66.1754 158.636 65.9184 158.513 65.6805C158.391 65.4425 158.21 65.2289 157.981 65.0539C157.5 64.703 156.882 64.5104 156.244 64.512V64.512Z" fill="white"/>
<path d="M149.478 64.512C148.798 64.4898 148.134 64.6834 147.618 65.0539C147.388 65.2277 147.205 65.441 147.083 65.6793C146.96 65.9175 146.901 66.1751 146.908 66.4343C146.898 66.7048 146.958 66.9739 147.085 67.2229C147.212 67.4719 147.402 67.6948 147.642 67.8761C148.144 68.2545 148.802 68.456 149.478 68.4385C150.147 68.4583 150.798 68.2561 151.289 67.8761C151.521 67.6905 151.704 67.4663 151.826 67.218C151.948 66.9697 152.007 66.7027 151.998 66.4343C152.004 66.1744 151.942 65.9166 151.817 65.6784C151.693 65.4402 151.508 65.2272 151.276 65.0539C150.783 64.6866 150.138 64.4925 149.478 64.512V64.512Z" fill="white"/>
<path d="M218.961 40.3906C216.661 38.683 213.394 37.8138 209.259 37.8138C200.951 37.8138 198.394 41.771 197.892 42.6913V42.7526L201.318 44.0614V44.0103C202.187 42.9926 203.352 42.1769 204.703 41.6401C206.054 41.1034 207.546 40.8633 209.039 40.9427C216.943 40.9427 218.019 45.3191 218.019 47.6607V55.2069C218.005 55.5038 217.921 55.7953 217.77 56.0646C217.62 56.3339 217.407 56.5755 217.144 56.7753C216.881 56.9752 216.573 57.1293 216.238 57.2287C215.903 57.3281 215.548 57.3707 215.193 57.3542H213.419V46.8222C211.618 46.0746 209.642 45.6662 207.632 45.6259C202.028 45.6259 197.427 47.6096 197.427 53.3868C197.462 54.8309 198.074 56.2239 199.165 57.344H189.377V31.5867L184.972 33.008V54.1128C184.972 55.984 184.042 57.344 179.748 57.344H174.596C173.96 57.344 173.165 57.344 171.599 55.2989L161.419 40.1554L159.792 37.6707C157.78 38.6602 156.089 40.0477 154.869 41.7112C153.648 43.3747 152.936 45.2632 152.793 47.2108C152.981 49.3268 153.801 51.3696 155.179 53.1517L158.691 57.344H145.55C142.039 57.344 140.338 55.7284 140.338 52.3848C140.42 50.3941 141.208 48.4687 142.601 46.8529L139.861 45.4009C137.891 47.6061 136.811 50.2774 136.777 53.0289C136.777 57.436 139.983 60.1866 145.819 60.1866H165.396L159.376 52.7529C157.002 49.5831 155.399 46.6995 158.544 43.09C160.159 45.4521 168.026 56.9145 168.479 57.4769C169.079 58.3723 169.975 59.1041 171.06 59.5847C172.145 60.0652 173.373 60.2742 174.596 60.1866H179.956C180.937 60.2006 181.918 60.1251 182.88 59.9616C183.589 59.8458 184.285 59.6781 184.96 59.4606V60.1866H216.257C217.808 60.218 219.312 59.7452 220.453 58.8677C221.595 57.9902 222.284 56.7767 222.375 55.483V47.63C222.473 46.2882 222.219 44.9447 221.629 43.694C221.039 42.4432 220.129 41.3157 218.961 40.3906V40.3906ZM209.173 48.5708V57.3338H207.717C202.823 57.3338 201.49 54.44 201.49 53.1619C201.514 50.5749 204.047 47.8652 209.185 48.581L209.173 48.5708Z" fill="white"/>
<path d="M233.069 37.8856L241.634 35.1963V33.274L237.511 34.5828L236.96 33.5603C236.728 33.0899 236.96 32.6911 237.67 32.3639C237.895 32.2446 238.168 32.2042 238.428 32.2515C238.679 32.3018 238.916 32.3921 239.126 32.5173L239.689 32.8138L240.276 31.188L240.007 31.0347C239.504 30.7588 238.929 30.5903 238.33 30.5439C237.704 30.4855 237.07 30.5557 236.483 30.7484C236.04 30.8691 235.63 31.0624 235.277 31.3169C234.924 31.5715 234.635 31.8822 234.427 32.231C234.246 32.5647 234.162 32.9292 234.181 33.2952C234.2 33.6612 234.322 34.0182 234.538 34.3374L235.076 35.3599L234.33 35.5849L233.069 37.8856Z" fill="white"/>
<path d="M247.237 54.2356C247.18 55.0967 246.717 55.9035 245.948 56.4788C245.179 57.0541 244.169 57.3506 243.139 57.3032H240.3V37.3436L235.895 38.724V57.3441H230.096L228.591 60.1867H243.824C247.152 60.1867 251.642 57.7838 251.642 53.8369V31.6277L247.237 33.0081V54.2356Z" fill="white"/>
<path d="M259.167 33.2127V60.1868H263.572V31.8323L259.167 33.2127Z" fill="white"/>
</g>
<defs>
<linearGradient id="paint0_linear_62_755" x1="39.3117" y1="29.5213" x2="39.3117" y2="9.27539" gradientUnits="userSpaceOnUse">
<stop stop-color="#82C341"/>
<stop offset="1" stop-color="#007054"/>
</linearGradient>
<clipPath id="clip0_62_755">
<rect width="263.571" height="80" fill="white"/>
</clipPath>
</defs>
</svg>
