<svg width="270" height="80" viewBox="0 0 270 80" fill="none" xmlns="http://www.w3.org/2000/svg">
<g clip-path="url(#clip0_88_1287)">
<path fill-rule="evenodd" clip-rule="evenodd" d="M109.523 0V31.2385H78.2795V0H60.6113V80H78.2795V48.762H109.523V80H127.192V48.762V31.2385V0H109.523Z" fill="white"/>
<path fill-rule="evenodd" clip-rule="evenodd" d="M8.83823 0H0V17.6183H8.83823C21.2197 17.6183 31.2928 27.6586 31.2928 40.0008C31.2928 52.3408 21.2197 62.3811 8.83823 62.3811H0V80H8.83823C30.9667 80 48.9687 62.0566 48.9687 40.0008C48.9687 17.9434 30.9667 0 8.83823 0Z" fill="white"/>
<path d="M143.952 80C148.137 80 151.529 76.6421 151.529 72.5C151.529 68.3579 148.137 65 143.952 65C139.768 65 136.376 68.3579 136.376 72.5C136.376 76.6421 139.768 80 143.952 80Z" fill="white"/>
</g>
<rect x="168.102" y="4.57153" width="2.28571" height="70.8571" fill="white"/>
<path d="M202.348 24.6853C202.348 26.5231 202.005 28.0595 201.321 29.2946C200.636 30.5223 199.643 31.4487 198.341 32.0737C197.039 32.6912 195.469 33 193.631 33H189.1V16.683H194.122C195.811 16.683 197.27 16.9881 198.497 17.5982C199.725 18.2009 200.674 19.0975 201.343 20.2879C202.013 21.471 202.348 22.9368 202.348 24.6853ZM199.557 24.7634C199.557 23.4241 199.345 22.3229 198.921 21.4598C198.505 20.5967 197.887 19.9568 197.069 19.5402C196.258 19.1161 195.257 18.904 194.066 18.904H191.778V30.7567H193.676C195.648 30.7567 197.121 30.2545 198.095 29.25C199.07 28.2455 199.557 26.75 199.557 24.7634ZM210.517 20.4107C211.618 20.4107 212.563 20.6376 213.352 21.0915C214.141 21.5454 214.747 22.189 215.171 23.0223C215.595 23.8557 215.807 24.8527 215.807 26.0134V27.4196H207.56C207.589 28.6176 207.909 29.5402 208.52 30.1875C209.137 30.8348 210 31.1585 211.109 31.1585C211.898 31.1585 212.604 31.0841 213.229 30.9353C213.862 30.779 214.513 30.5521 215.182 30.2545V32.3862C214.565 32.6763 213.936 32.8884 213.296 33.0223C212.656 33.1562 211.89 33.2232 210.997 33.2232C209.784 33.2232 208.717 32.9888 207.794 32.5201C206.879 32.0439 206.161 31.3371 205.64 30.3996C205.127 29.4621 204.87 28.2976 204.87 26.9063C204.87 25.5223 205.104 24.3467 205.573 23.3795C206.042 22.4122 206.7 21.6756 207.549 21.1696C208.397 20.6637 209.386 20.4107 210.517 20.4107ZM210.517 22.3862C209.691 22.3862 209.022 22.654 208.508 23.1897C208.002 23.7254 207.705 24.5104 207.616 25.5446H213.241C213.233 24.9271 213.129 24.3802 212.928 23.904C212.735 23.4278 212.437 23.0558 212.035 22.7879C211.641 22.5201 211.135 22.3862 210.517 22.3862ZM227.069 29.4732C227.069 30.2842 226.871 30.9688 226.477 31.5268C226.083 32.0848 225.506 32.5089 224.747 32.7991C223.996 33.0818 223.073 33.2232 221.979 33.2232C221.116 33.2232 220.372 33.16 219.747 33.0335C219.13 32.9144 218.546 32.7284 217.995 32.4754V30.2098C218.583 30.4851 219.241 30.7232 219.97 30.9241C220.707 31.125 221.403 31.2254 222.057 31.2254C222.921 31.2254 223.542 31.0915 223.921 30.8237C224.301 30.5484 224.491 30.1838 224.491 29.7299C224.491 29.4621 224.412 29.224 224.256 29.0156C224.107 28.7999 223.825 28.5804 223.408 28.3571C222.999 28.1265 222.396 27.8512 221.6 27.5313C220.819 27.2188 220.16 26.9063 219.624 26.5938C219.089 26.2813 218.683 25.9055 218.408 25.4665C218.133 25.0201 217.995 24.4509 217.995 23.7589C217.995 22.6652 218.427 21.8356 219.29 21.2701C220.16 20.6972 221.31 20.4107 222.738 20.4107C223.497 20.4107 224.211 20.4888 224.881 20.6451C225.558 20.7939 226.22 21.0134 226.868 21.3036L226.042 23.279C225.484 23.0335 224.922 22.8326 224.357 22.6763C223.799 22.5126 223.229 22.4308 222.649 22.4308C221.972 22.4308 221.455 22.535 221.098 22.7433C220.748 22.9516 220.573 23.2493 220.573 23.6362C220.573 23.9263 220.659 24.1719 220.83 24.3728C221.001 24.5737 221.295 24.7746 221.711 24.9754C222.136 25.1763 222.723 25.4256 223.475 25.7232C224.211 26.006 224.848 26.3036 225.383 26.6161C225.927 26.9211 226.343 27.2969 226.633 27.7433C226.924 28.1897 227.069 28.7664 227.069 29.4732ZM232.526 20.6451V33H229.903V20.6451H232.526ZM231.232 15.9129C231.633 15.9129 231.979 16.0208 232.27 16.2366C232.567 16.4524 232.716 16.8244 232.716 17.3527C232.716 17.8735 232.567 18.2455 232.27 18.4688C231.979 18.6845 231.633 18.7924 231.232 18.7924C230.815 18.7924 230.461 18.6845 230.171 18.4688C229.889 18.2455 229.747 17.8735 229.747 17.3527C229.747 16.8244 229.889 16.4524 230.171 16.2366C230.461 16.0208 230.815 15.9129 231.232 15.9129ZM239.814 38.4911C238.14 38.4911 236.857 38.1897 235.964 37.5871C235.071 36.9844 234.624 36.1399 234.624 35.0536C234.624 34.2946 234.863 33.651 235.339 33.1228C235.815 32.6019 236.496 32.2411 237.381 32.0402C237.046 31.8914 236.756 31.6607 236.511 31.3482C236.273 31.0283 236.153 30.6749 236.153 30.2879C236.153 29.8266 236.284 29.4323 236.544 29.1049C236.804 28.7775 237.195 28.4613 237.716 28.1563C237.069 27.881 236.548 27.4345 236.153 26.817C235.767 26.192 235.573 25.4591 235.573 24.6183C235.573 23.7254 235.763 22.9665 236.142 22.3415C236.522 21.7091 237.076 21.2292 237.805 20.9018C238.534 20.567 239.416 20.3996 240.45 20.3996C240.674 20.3996 240.915 20.4144 241.176 20.4442C241.444 20.4665 241.689 20.4963 241.912 20.5335C242.143 20.5632 242.318 20.5967 242.437 20.6339H246.711V22.096L244.613 22.4866C244.814 22.7693 244.974 23.093 245.093 23.4576C245.212 23.8147 245.272 24.2054 245.272 24.6295C245.272 25.9092 244.829 26.9174 243.944 27.654C243.066 28.3832 241.853 28.7478 240.305 28.7478C239.933 28.7329 239.572 28.7031 239.223 28.6585C238.955 28.8222 238.75 29.0045 238.609 29.2054C238.467 29.3988 238.397 29.6183 238.397 29.8638C238.397 30.0647 238.467 30.2284 238.609 30.3549C238.75 30.474 238.959 30.5632 239.234 30.6228C239.517 30.6823 239.859 30.7121 240.261 30.7121H242.392C243.746 30.7121 244.781 30.9985 245.495 31.5714C246.209 32.1443 246.566 32.9851 246.566 34.0937C246.566 35.5 245.986 36.5826 244.825 37.3415C243.665 38.1079 241.994 38.4911 239.814 38.4911ZM239.915 36.6496C240.83 36.6496 241.6 36.5603 242.225 36.3817C242.85 36.2031 243.322 35.9464 243.642 35.6116C243.962 35.2842 244.122 34.8936 244.122 34.4397C244.122 34.0379 244.022 33.7292 243.821 33.5134C243.62 33.2976 243.319 33.1488 242.917 33.067C242.515 32.9851 242.017 32.9442 241.421 32.9442H239.479C238.996 32.9442 238.568 33.0186 238.196 33.1674C237.824 33.3237 237.534 33.5469 237.325 33.8371C237.124 34.1272 237.024 34.4769 237.024 34.8862C237.024 35.4516 237.273 35.8869 237.772 36.192C238.278 36.497 238.992 36.6496 239.915 36.6496ZM240.428 27.029C241.194 27.029 241.764 26.8207 242.136 26.404C242.508 25.9799 242.694 25.3847 242.694 24.6183C242.694 23.785 242.5 23.16 242.113 22.7433C241.734 22.3266 241.168 22.1183 240.417 22.1183C239.68 22.1183 239.118 22.3304 238.732 22.7545C238.352 23.1786 238.162 23.8073 238.162 24.6406C238.162 25.3921 238.352 25.9799 238.732 26.404C239.118 26.8207 239.684 27.029 240.428 27.029ZM255.406 20.4107C256.797 20.4107 257.88 20.7716 258.653 21.4933C259.435 22.2076 259.825 23.3571 259.825 24.942V33H257.203V25.433C257.203 24.4732 257.005 23.7552 256.611 23.279C256.217 22.7954 255.607 22.5536 254.781 22.5536C253.583 22.5536 252.749 22.9219 252.281 23.6585C251.819 24.3951 251.589 25.4628 251.589 26.8616V33H248.966V20.6451H251.008L251.377 22.3192H251.522C251.79 21.8876 252.121 21.5342 252.515 21.2589C252.917 20.9762 253.363 20.7641 253.854 20.6228C254.353 20.4814 254.87 20.4107 255.406 20.4107ZM198.52 59.558C198.52 60.5253 198.281 61.3586 197.805 62.058C197.336 62.7574 196.659 63.2932 195.774 63.6652C194.896 64.0372 193.847 64.2232 192.627 64.2232C192.031 64.2232 191.462 64.1897 190.919 64.1228C190.376 64.0558 189.863 63.9591 189.379 63.8326C188.903 63.6987 188.467 63.5387 188.073 63.3527V60.8304C188.735 61.1205 189.476 61.3847 190.294 61.6228C191.113 61.8534 191.946 61.9688 192.794 61.9688C193.486 61.9688 194.059 61.8795 194.513 61.7009C194.974 61.5149 195.316 61.2545 195.54 60.9196C195.763 60.5774 195.874 60.1793 195.874 59.7254C195.874 59.2418 195.744 58.8326 195.484 58.4978C195.223 58.1629 194.829 57.8579 194.301 57.5826C193.78 57.2999 193.125 56.9985 192.336 56.6786C191.801 56.4628 191.287 56.2173 190.796 55.942C190.313 55.6667 189.881 55.343 189.502 54.971C189.122 54.599 188.821 54.16 188.598 53.654C188.382 53.1406 188.274 52.5379 188.274 51.846C188.274 50.9234 188.493 50.1347 188.932 49.4799C189.379 48.8251 190.004 48.3229 190.807 47.9732C191.618 47.6235 192.563 47.4487 193.642 47.4487C194.498 47.4487 195.302 47.5379 196.053 47.7165C196.812 47.8951 197.556 48.1481 198.285 48.4754L197.437 50.6295C196.767 50.3542 196.116 50.1347 195.484 49.971C194.859 49.8073 194.219 49.7254 193.564 49.7254C192.999 49.7254 192.519 49.811 192.124 49.9821C191.73 50.1533 191.429 50.3951 191.22 50.7076C191.02 51.0126 190.919 51.3772 190.919 51.8013C190.919 52.2775 191.034 52.6793 191.265 53.0067C191.503 53.3266 191.868 53.6205 192.359 53.8884C192.857 54.1563 193.497 54.4539 194.278 54.7813C195.179 55.1533 195.941 55.5439 196.566 55.9531C197.199 56.3624 197.682 56.8534 198.017 57.4263C198.352 57.9918 198.52 58.7024 198.52 59.558ZM199.535 51.6451H202.392L204.926 58.6987C205.037 59.0186 205.138 59.3348 205.227 59.6473C205.324 59.9524 205.406 60.2537 205.473 60.5513C205.547 60.849 205.607 61.1466 205.651 61.4442H205.718C205.793 61.0573 205.897 60.6257 206.031 60.1496C206.172 59.6659 206.328 59.1823 206.499 58.6987L208.932 51.6451H211.756L206.455 65.6964C206.15 66.5 205.774 67.1845 205.328 67.75C204.889 68.3229 204.368 68.7545 203.765 69.0446C203.162 69.3423 202.474 69.4911 201.7 69.4911C201.328 69.4911 201.005 69.4687 200.729 69.4241C200.454 69.3869 200.22 69.346 200.026 69.3013V67.2031C200.182 67.2403 200.38 67.2738 200.618 67.3036C200.856 67.3333 201.101 67.3482 201.354 67.3482C201.823 67.3482 202.229 67.2552 202.571 67.0692C202.913 66.8832 203.203 66.619 203.441 66.2768C203.68 65.942 203.877 65.5588 204.033 65.1272L204.468 63.9665L199.535 51.6451ZM221.935 60.4732C221.935 61.2842 221.738 61.9688 221.343 62.5268C220.949 63.0848 220.372 63.5089 219.613 63.7991C218.862 64.0818 217.939 64.2232 216.845 64.2232C215.982 64.2232 215.238 64.16 214.613 64.0335C213.996 63.9144 213.412 63.7284 212.861 63.4754V61.2098C213.449 61.4851 214.107 61.7232 214.836 61.9241C215.573 62.125 216.269 62.2254 216.924 62.2254C217.787 62.2254 218.408 62.0915 218.787 61.8237C219.167 61.5484 219.357 61.1838 219.357 60.7299C219.357 60.4621 219.278 60.224 219.122 60.0156C218.973 59.7999 218.691 59.5804 218.274 59.3571C217.865 59.1265 217.262 58.8512 216.466 58.5313C215.685 58.2188 215.026 57.9063 214.491 57.5938C213.955 57.2813 213.549 56.9055 213.274 56.4665C212.999 56.0201 212.861 55.4509 212.861 54.7589C212.861 53.6652 213.293 52.8356 214.156 52.2701C215.026 51.6972 216.176 51.4107 217.604 51.4107C218.363 51.4107 219.078 51.4888 219.747 51.6451C220.424 51.7939 221.086 52.0134 221.734 52.3036L220.908 54.279C220.35 54.0335 219.788 53.8326 219.223 53.6763C218.665 53.5126 218.095 53.4308 217.515 53.4308C216.838 53.4308 216.321 53.535 215.964 53.7433C215.614 53.9516 215.439 54.2493 215.439 54.6362C215.439 54.9263 215.525 55.1719 215.696 55.3728C215.867 55.5737 216.161 55.7746 216.578 55.9754C217.002 56.1763 217.589 56.4256 218.341 56.7232C219.078 57.006 219.714 57.3036 220.249 57.6161C220.793 57.9211 221.209 58.2969 221.499 58.7433C221.79 59.1897 221.935 59.7664 221.935 60.4732ZM229.368 62.1027C229.71 62.1027 230.049 62.0729 230.383 62.0134C230.718 61.9464 231.023 61.8683 231.299 61.779V63.7656C231.008 63.8921 230.633 64 230.171 64.0893C229.71 64.1786 229.23 64.2232 228.732 64.2232C228.032 64.2232 227.403 64.1079 226.845 63.8772C226.287 63.6391 225.845 63.2336 225.517 62.6607C225.19 62.0878 225.026 61.2954 225.026 60.2835V53.6429H223.341V52.471L225.149 51.5446L226.008 48.8996H227.66V51.6451H231.198V53.6429H227.66V60.25C227.66 60.875 227.816 61.34 228.129 61.6451C228.441 61.9501 228.854 62.1027 229.368 62.1027ZM238.732 51.4107C239.833 51.4107 240.778 51.6376 241.566 52.0915C242.355 52.5454 242.961 53.189 243.386 54.0223C243.81 54.8557 244.022 55.8527 244.022 57.0134V58.4196H235.774C235.804 59.6176 236.124 60.5402 236.734 61.1875C237.351 61.8348 238.214 62.1585 239.323 62.1585C240.112 62.1585 240.819 62.0841 241.444 61.9353C242.076 61.779 242.727 61.5521 243.397 61.2545V63.3862C242.779 63.6763 242.15 63.8884 241.511 64.0223C240.871 64.1562 240.104 64.2232 239.211 64.2232C237.999 64.2232 236.931 63.9888 236.008 63.5201C235.093 63.0439 234.375 62.3371 233.854 61.3996C233.341 60.4621 233.084 59.2976 233.084 57.9063C233.084 56.5223 233.319 55.3467 233.787 54.3795C234.256 53.4122 234.915 52.6756 235.763 52.1696C236.611 51.6637 237.601 51.4107 238.732 51.4107ZM238.732 53.3862C237.906 53.3862 237.236 53.654 236.723 54.1897C236.217 54.7254 235.919 55.5104 235.83 56.5446H241.455C241.447 55.9271 241.343 55.3802 241.142 54.904C240.949 54.4278 240.651 54.0558 240.249 53.7879C239.855 53.5201 239.349 53.3862 238.732 53.3862ZM260.941 51.4107C262.325 51.4107 263.367 51.7679 264.066 52.4821C264.773 53.1964 265.127 54.3423 265.127 55.9196V64H262.504V56.3884C262.504 55.4509 262.322 54.744 261.957 54.2679C261.592 53.7917 261.038 53.5536 260.294 53.5536C259.252 53.5536 258.501 53.8884 258.04 54.558C257.586 55.2202 257.359 56.1838 257.359 57.4487V64H254.736V56.3884C254.736 55.7634 254.654 55.2426 254.491 54.8259C254.334 54.4018 254.092 54.0856 253.765 53.8772C253.438 53.6615 253.025 53.5536 252.526 53.5536C251.804 53.5536 251.228 53.7173 250.796 54.0446C250.372 54.372 250.067 54.8557 249.881 55.4955C249.695 56.128 249.602 56.9055 249.602 57.8281V64H246.979V51.6451H249.022L249.39 53.308H249.535C249.788 52.8765 250.101 52.5231 250.473 52.2478C250.852 51.965 251.273 51.7567 251.734 51.6228C252.195 51.4814 252.675 51.4107 253.174 51.4107C254.096 51.4107 254.874 51.5744 255.506 51.9018C256.139 52.2217 256.611 52.7128 256.924 53.375H257.124C257.511 52.7054 258.051 52.2106 258.743 51.8906C259.435 51.5707 260.168 51.4107 260.941 51.4107Z" fill="white"/>
<defs>
<clipPath id="clip0_88_1287">
<rect width="151.529" height="80" fill="white"/>
</clipPath>
</defs>
</svg>
