<svg width="1510" height="200" viewBox="0 0 1510 200" fill="none" xmlns="http://www.w3.org/2000/svg">
<g clip-path="url(#clip0_317_1667)">
<mask id="mask0_317_1667" style="mask-type:luminance" maskUnits="userSpaceOnUse" x="0" y="0" width="1510" height="200">
<path d="M0 0H1509.52V200H0V0Z" fill="white"/>
</mask>
<g mask="url(#mask0_317_1667)">
<mask id="mask1_317_1667" style="mask-type:alpha" maskUnits="userSpaceOnUse" x="-6" y="-4" width="202" height="166">
<path d="M3.57227 151.19L95.2389 5.95215L185.715 152.381" stroke="#FF0000" stroke-width="19.0476" stroke-linecap="round" stroke-linejoin="round"/>
</mask>
<g mask="url(#mask1_317_1667)">
<path d="M14.2857 147.619H0L88.0952 4.76172H102.381L190.476 147.619H176.19L95.2381 19.0474L14.2857 147.619Z" fill="white"/>
</g>
</g>
<mask id="mask2_317_1667" style="mask-type:luminance" maskUnits="userSpaceOnUse" x="0" y="0" width="1510" height="200">
<path d="M0 0H1509.52V200H0V0Z" fill="white"/>
</mask>
<g mask="url(#mask2_317_1667)">
<mask id="mask3_317_1667" style="mask-type:alpha" maskUnits="userSpaceOnUse" x="234" y="-9" width="156" height="159">
<path d="M244.049 1.19043L245.239 139.286L379.763 140.476" stroke="#FF0000" stroke-width="19.0476" stroke-linecap="round" stroke-linejoin="round"/>
</mask>
<g mask="url(#mask3_317_1667)">
<mask id="mask4_317_1667" style="mask-type:luminance" maskUnits="userSpaceOnUse" x="0" y="0" width="1510" height="200">
<path d="M0 0H1509.52V200H0V0Z" fill="white"/>
</mask>
<g mask="url(#mask4_317_1667)">
<path d="M250 4.76172V147.619H238.096V4.76172H250Z" fill="white"/>
<path d="M380.953 135.714V147.619H238.096V135.714H380.953Z" fill="white"/>
</g>
</g>
</g>
<mask id="mask5_317_1667" style="mask-type:luminance" maskUnits="userSpaceOnUse" x="0" y="0" width="1510" height="200">
<path d="M0 0H1509.52V200H0V0Z" fill="white"/>
</mask>
<g mask="url(#mask5_317_1667)">
<mask id="mask6_317_1667" style="mask-type:alpha" maskUnits="userSpaceOnUse" x="413" y="130" width="171" height="20">
<path d="M422.619 140.477H573.81" stroke="#FF0000" stroke-width="19.0476" stroke-linecap="round"/>
</mask>
<g mask="url(#mask6_317_1667)">
<path d="M571.427 135.714V147.619H428.57V135.714H571.427Z" fill="white"/>
</g>
</g>
<mask id="mask7_317_1667" style="mask-type:luminance" maskUnits="userSpaceOnUse" x="0" y="0" width="1510" height="200">
<path d="M0 0H1509.52V200H0V0Z" fill="white"/>
</mask>
<g mask="url(#mask7_317_1667)">
<mask id="mask8_317_1667" style="mask-type:alpha" maskUnits="userSpaceOnUse" x="415" y="64" width="122" height="20">
<path d="M425 73.8096H527.381" stroke="#FF0000" stroke-width="19.0476" stroke-linecap="round"/>
</mask>
<g mask="url(#mask8_317_1667)">
<path d="M523.808 67.8574V79.7622H428.57V67.8574H523.808Z" fill="white"/>
</g>
</g>
<mask id="mask9_317_1667" style="mask-type:luminance" maskUnits="userSpaceOnUse" x="0" y="0" width="1510" height="200">
<path d="M0 0H1509.52V200H0V0Z" fill="white"/>
</mask>
<g mask="url(#mask9_317_1667)">
<mask id="mask10_317_1667" style="mask-type:alpha" maskUnits="userSpaceOnUse" x="416" y="-2" width="168" height="22">
<path d="M426.191 8.33301L573.81 9.52348" stroke="#FF0000" stroke-width="19.0476" stroke-linecap="round"/>
</mask>
<g mask="url(#mask10_317_1667)">
<path d="M571.429 4.76172V16.6665H428.572V4.76172H571.429Z" fill="white"/>
</g>
</g>
<mask id="mask11_317_1667" style="mask-type:luminance" maskUnits="userSpaceOnUse" x="0" y="0" width="1510" height="200">
<path d="M0 0H1509.52V200H0V0Z" fill="white"/>
</mask>
<g mask="url(#mask11_317_1667)">
<mask id="mask12_317_1667" style="mask-type:alpha" maskUnits="userSpaceOnUse" x="614" y="0" width="196" height="160">
<path d="M623.811 150L714.287 9.52344C714.287 9.52344 781.844 114.414 800.206 142.923" stroke="#FF0000" stroke-width="19.0476" stroke-linecap="round" stroke-linejoin="round"/>
</mask>
<g mask="url(#mask12_317_1667)">
<path d="M633.335 147.619H619.049L707.144 4.76172H721.43L809.525 147.619H795.239L714.287 19.0474L633.335 147.619Z" fill="white"/>
</g>
<path d="M1025.81 41.1743C1030.24 50.2886 1032.45 61.6505 1032.45 75.2552C1032.45 96.4124 1027.11 112.298 1016.43 122.912C1005.76 133.46 989.642 138.731 968.095 138.731H944.461V13.7314H970.828C984.823 13.7314 996.38 16.0409 1005.49 20.6648C1014.61 25.2219 1021.38 32.06 1025.81 41.1743ZM1034.5 115.003C1040.16 104.193 1042.99 90.8171 1042.99 74.8648C1042.99 59.6314 1040.33 46.8362 1034.99 36.4838C1029.65 26.0648 1021.8 18.1886 1011.45 12.8505C1001.1 7.51237 988.309 4.8457 973.076 4.8457H934.404V147.617H968.58C984.857 147.617 998.495 144.884 1009.5 139.417C1020.57 133.95 1028.9 125.812 1034.5 115.003Z" fill="white"/>
<path d="M1088.51 58.0723C1094.82 51.3009 1103.05 47.9152 1113.21 47.9152C1120.11 47.9152 1125.78 49.5771 1130.21 52.8961C1134.7 56.1533 1138.05 60.739 1140.26 66.6628C1142.48 72.5866 1143.58 79.4247 1143.58 87.1723H1077.47C1078.58 74.4771 1082.26 64.7771 1088.51 58.0723ZM1135.87 45.7675C1129.88 41.5342 1122.36 39.4199 1113.31 39.4199C1103.29 39.4199 1094.82 41.8914 1087.92 46.839C1081.08 51.7199 1075.88 58.3961 1072.3 66.858C1068.78 75.3199 1067.02 84.858 1067.02 95.4723C1067.02 106.344 1068.85 115.848 1072.49 123.987C1076.2 132.125 1081.67 138.444 1088.9 142.934C1096.19 147.363 1105.21 149.572 1115.95 149.572C1122.72 149.572 1128.71 149.02 1133.92 147.915C1139.13 146.872 1144.33 145.177 1149.54 142.834V133.753C1143.62 136.358 1138.21 138.215 1133.33 139.32C1128.51 140.363 1122.82 140.882 1116.24 140.882C1103.67 140.882 1094.01 136.977 1087.24 129.163C1080.53 121.348 1077.18 110.153 1077.18 95.5723H1153.84V88.4437C1153.84 78.939 1152.34 70.5056 1149.35 63.1485C1146.42 55.7913 1141.92 50.0009 1135.87 45.7675Z" fill="white"/>
<path d="M1244.65 136.001C1247.84 131.51 1249.44 126.106 1249.44 119.791C1249.44 113.41 1247.87 108.363 1244.75 104.653C1241.63 100.944 1237.43 97.9152 1232.15 95.5723C1226.94 93.2294 1221.25 90.9818 1215.06 88.8342C1209.07 86.7485 1203.9 84.858 1199.54 83.1675C1195.17 81.4104 1191.82 79.2628 1189.48 76.7247C1187.14 74.1199 1185.96 70.539 1185.96 65.9818C1185.96 60.058 1188.41 55.5675 1193.29 52.5056C1198.17 49.4437 1204.94 47.9152 1213.6 47.9152C1218.87 47.9152 1224.14 48.5009 1229.42 49.6723C1234.69 50.8437 1239.34 52.3771 1243.38 54.2628L1246.9 45.8628C1242.41 43.9771 1237.39 42.4437 1231.86 41.2723C1226.39 40.0342 1220.47 39.4199 1214.09 39.4199C1202.56 39.4199 1193.38 41.7961 1186.54 46.5485C1179.71 51.3009 1176.29 57.939 1176.29 66.4675C1176.29 72.7152 1177.73 77.6628 1180.59 81.3104C1183.46 84.8914 1187.39 87.7914 1192.41 90.0056C1197.48 92.1533 1203.28 94.3342 1209.79 96.5485C1216.04 98.6342 1221.38 100.682 1225.81 102.701C1230.24 104.72 1233.62 107.125 1235.96 109.925C1238.37 112.658 1239.57 116.144 1239.57 120.377C1239.57 126.825 1237.17 131.901 1232.35 135.61C1227.53 139.32 1219.65 141.177 1208.72 141.177C1202.47 141.177 1196.38 140.425 1190.45 138.929C1184.53 137.434 1179.12 135.482 1174.24 133.072V142.834C1178.14 144.72 1183 146.32 1188.79 147.62C1194.59 148.92 1201.16 149.572 1208.52 149.572C1217.37 149.572 1224.83 148.439 1230.88 146.158C1236.94 143.815 1241.53 140.429 1244.65 136.001Z" fill="white"/>
<path d="M1286.75 4.4566C1285.58 2.96137 1283.75 2.20898 1281.28 2.20898C1278.93 2.20898 1277.18 2.96137 1276.01 4.4566C1274.83 5.88994 1274.25 7.83755 1274.25 10.3137C1274.25 12.7899 1274.83 14.7423 1276.01 16.1756C1277.18 17.609 1278.93 18.3233 1281.28 18.3233C1283.75 18.3233 1285.58 17.609 1286.75 16.1756C1287.92 14.7423 1288.51 12.7899 1288.51 10.3137C1288.51 7.83755 1287.92 5.88994 1286.75 4.4566ZM1286.06 147.619V41.4661H1276.2V147.619H1286.06Z" fill="white"/>
<path d="M1373.66 93.5199C1368.97 97.9485 1362.24 100.163 1353.45 100.163C1344.46 100.163 1337.69 97.9485 1333.13 93.5199C1328.57 89.0294 1326.3 82.7437 1326.3 74.6723C1326.3 66.0152 1328.67 59.3056 1333.43 54.5533C1338.25 49.7342 1344.85 47.3294 1353.25 47.3294C1361.91 47.3294 1368.65 49.5771 1373.47 54.0675C1378.28 58.558 1380.69 65.2961 1380.69 74.2818C1380.69 82.6818 1378.35 89.0914 1373.66 93.5199ZM1373.57 184.339C1367.38 186.358 1359.63 187.368 1350.32 187.368C1339.65 187.368 1331.51 185.51 1325.91 181.801C1320.37 178.153 1317.61 172.782 1317.61 165.687C1317.61 160.153 1318.81 155.725 1321.22 152.406C1323.69 149.087 1327.14 146.677 1331.57 145.182C1336 143.62 1341.05 142.839 1346.71 142.839H1364.48C1370.14 142.839 1375.06 143.358 1379.23 144.401C1383.39 145.377 1386.61 147.168 1388.89 149.772C1391.17 152.377 1392.31 156.053 1392.31 160.806C1392.31 166.601 1390.75 171.453 1387.63 175.358C1384.5 179.329 1379.81 182.32 1373.57 184.339ZM1318.48 187.953C1325.91 193.096 1336.29 195.668 1349.64 195.668C1366.43 195.668 1379.39 192.61 1388.5 186.491C1397.68 180.372 1402.27 171.744 1402.27 160.61C1402.27 151.496 1399.21 144.591 1393.09 139.906C1386.97 135.22 1378.16 132.877 1366.63 132.877H1347.98C1344.4 132.877 1341.37 132.515 1338.89 131.801C1336.42 131.02 1334.53 129.944 1333.23 128.577C1331.93 127.144 1331.28 125.325 1331.28 123.11C1331.28 119.596 1332.32 116.663 1334.4 114.32C1336.49 111.91 1339.51 109.534 1343.48 107.191C1346.61 107.777 1349.8 108.072 1353.06 108.072C1364.9 108.072 1374.15 104.977 1380.79 98.7914C1387.43 92.6056 1390.75 84.2437 1390.75 73.6961C1390.75 69.2675 1390.04 65.0675 1388.6 61.0961C1387.17 57.058 1385.02 53.3199 1382.16 49.8675L1404.03 48.4009V41.3723H1369.76C1368.46 40.9152 1366.99 40.558 1365.36 40.2961C1363.73 39.9723 1361.94 39.7437 1359.99 39.6152C1358.1 39.4866 1355.98 39.4199 1353.64 39.4199C1345.96 39.4199 1339.28 40.8866 1333.62 43.8152C1328.02 46.6818 1323.69 50.7485 1320.63 56.0199C1317.57 61.2914 1316.05 67.5104 1316.05 74.6723C1316.05 82.158 1317.8 88.5723 1321.32 93.9104C1324.83 99.1818 1329.65 102.929 1335.77 105.144C1331.21 107.815 1327.8 110.739 1325.52 113.929C1323.24 117.053 1322.1 120.439 1322.1 124.087C1322.1 127.344 1323.05 130.206 1324.93 132.682C1326.88 135.158 1329.39 137.106 1332.45 138.539C1324.77 139.582 1318.68 142.672 1314.19 147.815C1309.7 153.025 1307.45 159.21 1307.45 166.372C1307.45 175.615 1311.13 182.81 1318.48 187.953Z" fill="white"/>
<path d="M1499.64 48.7914C1493.26 42.5437 1484.11 39.4199 1472.2 39.4199C1465.82 39.4199 1460.22 40.3961 1455.4 42.3485C1450.58 44.2342 1446.52 46.8056 1443.2 50.0628C1439.94 53.2533 1437.36 56.8342 1435.48 60.8056H1434.89L1433.43 41.4675H1425.42V147.62H1435.28V89.1247C1435.28 75.3866 1438.34 65.1342 1444.46 58.3628C1450.65 51.5247 1459.57 48.1104 1471.22 48.1104C1480.4 48.1104 1487.4 50.5818 1492.22 55.5294C1497.03 60.4771 1499.44 68.2247 1499.44 78.7723V147.62H1509.21V78.1866C1509.21 64.839 1506.02 55.039 1499.64 48.7914Z" fill="white"/>
</g>
</g>
<defs>
<clipPath id="clip0_317_1667">
<rect width="1509.52" height="200" fill="white"/>
</clipPath>
</defs>
</svg>
