<svg width="663" height="200" viewBox="0 0 663 200" fill="none" xmlns="http://www.w3.org/2000/svg">
<path d="M20.9616 195.693H0L68.552 4.32274H89.5098L20.9616 195.693Z" fill="#6CA5DE"/>
<path d="M167.976 200C143.077 200 123.641 194.348 109.668 183.049C95.6946 171.746 88.6098 154.921 88.4094 132.577H111.806C112.338 163.948 131.061 179.632 167.976 179.632C183.571 179.632 195.537 176.584 203.866 170.49C212.199 164.395 216.368 155.488 216.368 143.768C216.726 135.355 212.831 127.326 206.004 122.395C199.116 117.286 187.073 112.856 169.875 109.096L152.924 105.324C133.565 100.832 119.06 94.3405 109.398 85.8495C99.7397 77.3585 94.9395 65.4118 95.0012 50.0132C94.5774 35.6779 101.242 22.0553 112.815 13.5874C124.531 4.54166 140.365 0.0188895 160.317 0.0188895C172.144 -0.196852 183.933 1.43664 195.26 4.85769C204.012 7.3811 212.003 12.0426 218.506 18.4262C223.815 23.8506 227.975 30.2959 230.738 37.3653C233.411 44.6042 234.829 52.2438 234.921 59.9604H211.795C210.727 46.3224 206.293 36.3289 198.496 29.9761C190.698 23.6194 177.969 20.445 160.317 20.445C146.856 20.445 136.504 23.0455 129.262 28.2541C122.146 33.1622 118.035 41.372 118.367 50.0132C117.908 58.3193 121.341 66.3633 127.659 71.7761C133.735 76.9809 145.608 81.5539 163.283 85.4912L180.235 89.2628C201.373 93.9321 216.603 100.605 225.926 109.273C235.249 117.941 239.899 129.46 239.88 143.83C239.88 161.205 233.527 174.912 220.821 184.948C208.115 194.984 190.498 200 167.976 200Z" fill="#6CA5DE"/>
<path d="M305.79 180.641C316.746 180.814 327.41 177.101 335.893 170.162C344.461 163.355 348.757 153.588 348.776 140.86V124.471C343.329 128.039 337.026 130.088 330.519 130.412L310.363 132.816C298.693 134.268 290.41 136.942 285.483 140.891C280.463 145.032 277.716 151.315 278.09 157.811C277.759 164.187 280.336 170.366 285.098 174.616C289.817 178.622 296.882 180.641 305.79 180.641ZM377.37 178.148H385.144V195.635C381.214 196.198 377.243 196.463 373.271 196.436C358.743 196.436 350.953 189.806 349.905 176.546C340.285 191.471 325.256 198.929 304.811 198.929C289.551 198.929 277.616 195.369 268.917 188.304C260.218 181.238 255.884 171.233 255.884 158.346C255.884 133.232 272.993 118.893 307.215 115.329L327.106 113.191C341.614 111.569 348.869 105.205 348.869 94.1016C348.869 86.3812 346.492 80.8219 341.741 77.4163C336.991 74.0338 328.974 72.3117 317.694 72.3117C305.82 72.3117 296.913 74.3305 291.747 78.2485C286.581 82.1665 283.464 89.4093 282.84 99.6224H261.258C263.038 68.9832 281.838 53.6655 317.663 53.6655C352.421 53.6655 369.796 67.1031 369.796 93.9822V171.499C369.826 175.983 372.35 178.148 377.37 178.148Z" fill="#6CA5DE"/>
<path d="M424.128 195.693H402.631V4.32274H424.128V195.693Z" fill="#6CA5DE"/>
<path d="M547.775 135.486V56.9901H569.268V195.693H548.842V174.912C538.275 190.923 523.758 198.929 505.289 198.929C489.891 198.929 477.89 194.714 469.28 186.285C460.669 177.852 456.366 165.978 456.366 150.657V56.9901H477.979V148.669C477.979 169.272 488.546 179.574 509.685 179.574C519.763 179.609 529.418 175.525 536.402 168.263C543.984 160.762 547.775 149.836 547.775 135.486Z" fill="#6CA5DE"/>
<path d="M662.259 56.9904V75.8138H633.789V165.859C633.789 173.757 639.075 177.733 649.642 177.733H662.259V195.755C656.323 196.29 651.214 196.556 646.942 196.556C623.842 196.556 612.292 186.967 612.292 167.789V75.7521H589.435V56.9904H612.292V17.8332H633.789V56.9904H662.259Z" fill="#6CA5DE"/>
</svg>
