<svg width="802" height="200" viewBox="0 0 802 200" fill="none" xmlns="http://www.w3.org/2000/svg">
<g clip-path="url(#clip0_317_1638)">
<path d="M65.175 135.62C60.5006 132.815 53.4221 131.479 48.4806 131.479C33.2553 131.479 21.7695 141.63 21.7695 157.122C21.7695 171.68 30.8513 183.165 46.0766 183.165C54.357 183.165 57.6959 181.028 64.1066 179.025L70.2501 193.983C64.5072 197.189 55.2919 199.86 43.5391 199.86C16.4273 199.86 0 182.631 0 156.588C0 131.479 16.828 114.651 46.2102 114.651C57.1617 114.651 66.1099 117.055 71.4521 120.528L65.175 135.62ZM102.303 151.513H111.786C116.727 151.513 123.806 150.177 123.806 142.03C123.806 135.352 119.666 132.548 111.385 132.548H102.838L102.303 151.513ZM102.571 197.589H81.4688L82.1366 117.055H113.789C130.484 117.055 144.64 121.463 144.64 139.76C145.041 151.246 136.894 160.194 125.275 160.594V160.862C129.949 162.197 133.422 167.272 136.36 172.481L150.383 197.589H126.744L115.258 175.285C112.854 170.344 110.851 166.872 106.177 166.872H102.971L102.571 197.589ZM158.797 197.589H214.49V180.761H180.033L180.3 165.269H214.891V149.242H180.433L180.7 133.75H215.291V117.055H159.599L158.797 197.589ZM252.286 162.998H269.515L261.234 135.219H260.967L252.286 162.998ZM249.882 117.055H273.922L303.304 197.589H280.466L274.323 179.025H246.543L240.266 197.589H218.764L249.882 117.055ZM309.581 197.589H366.476L366.877 180.093H330.55L331.217 117.055H310.249L309.581 197.589ZM388.112 157.256C388.112 174.885 397.861 183.032 409.881 183.032C422.035 183.032 431.785 174.885 431.785 157.256C431.785 139.626 422.035 131.479 409.881 131.479C397.861 131.479 388.112 139.626 388.112 157.256ZM366.476 157.256C366.476 133.883 382.503 114.651 410.015 114.651C437.394 114.651 453.421 133.883 453.421 157.256C453.421 180.628 437.394 199.86 410.015 199.86C382.503 199.86 366.476 180.628 366.476 157.256ZM580.699 197.589H604.739L618.495 170.745L632.652 197.589H657.226L632.385 155.92L656.425 117.055H633.72L619.563 141.897L607.41 117.055H583.771L606.074 155.653L580.699 197.589ZM515.123 164.468L514.856 181.295C513.52 182.23 510.449 183.299 506.709 183.165C491.484 183.165 482.402 171.68 482.402 157.122C482.402 141.63 493.888 132.414 509.113 131.479C516.058 131.079 525.273 133.616 535.557 139.359L535.824 122.13C527.01 117.189 517.928 114.785 507.11 114.785C477.728 114.785 460.9 131.613 460.9 156.721C460.9 182.765 477.327 199.993 504.439 199.993C515.123 199.993 525.54 198.658 535.29 194.25L535.691 158.992L515.123 164.468ZM552.118 154.451L551.851 197.456H572.819L573.086 148.842L552.118 154.451ZM552.251 117.055L552.118 139.359L573.086 133.75V117.055H552.251Z" fill="white"/>
<path fill-rule="evenodd" clip-rule="evenodd" d="M728.811 43.206C728.811 43.206 688.744 3.67365 678.727 0.601878C670.981 -1.80212 663.636 3.273 670.447 10.8857C680.33 21.9708 691.549 39.1994 697.158 52.1543C699.161 56.6951 700.096 61.236 692.751 61.236C685.539 61.236 649.078 60.9689 639.462 62.8387C633.719 64.0407 628.511 70.7185 636.925 74.1909C649.88 79.3995 684.203 87.1457 691.415 87.8135C694.754 88.0806 698.227 88.2142 698.227 96.8953C698.227 110.117 688.744 143.373 687.809 150.05C686.874 156.995 692.617 168.347 701.833 154.725C711.582 140.701 720.397 116.261 730.013 104.642C733.218 100.768 737.225 99.5664 740.163 102.505C745.772 108.114 767.408 128.281 786.64 134.291C799.461 138.297 800.53 131.486 797.325 128.414C780.897 112.254 761.532 89.8169 756.323 77.6633C754.32 72.8553 754.587 70.0507 759.662 63.64C761.532 61.236 789.178 29.9841 796.924 23.9741C803.201 19.1661 803.735 6.07766 792.116 10.7521C779.295 15.9608 747.776 41.6034 739.629 43.8738C734.821 45.0758 733.352 47.7469 728.811 43.206Z" fill="#FFA814"/>
</g>
<defs>
<clipPath id="clip0_317_1638">
<rect width="801.327" height="200" fill="white"/>
</clipPath>
</defs>
</svg>
