<svg width="1365" height="200" viewBox="0 0 1365 200" fill="none" xmlns="http://www.w3.org/2000/svg">
<g clip-path="url(#clip0_317_1663)">
<path d="M198.905 97.5473C198.905 160.188 159.051 193.18 98.8556 193.18C38.6607 193.18 0 159.846 0 98.8756V7.87012H73.9236V97.8472C73.9236 120.427 84.0709 127.283 99.4525 127.283C114.834 127.283 125.073 120.47 125.073 99.1326V7.87012H198.905V97.5902V97.5473Z" fill="white"/>
<path d="M1280.07 24.2023L1314.68 120.135H1245.4L1280.07 24.2023ZM1196.51 191.86H1219.41L1238.69 138.131H1321.12L1340.67 191.86H1364.69L1297.06 5.43564H1265.19L1196.46 191.86H1196.51ZM1095.35 191.86H1124.41L1193.42 5.43564H1170.51L1111.01 169.965L1051.5 5.43564H1027.49L1095.4 191.86H1095.35ZM939.697 24.2023L974.363 120.135H905.077L939.743 24.2023H939.697ZM856.177 191.86H879.089L898.374 138.131H980.791L1000.35 191.86H1024.37L956.733 5.43564H924.867L856.131 191.86H856.177ZM764.805 194.217C804.477 194.217 833.817 170.479 833.817 139.201C833.817 103.982 810.354 91.4709 765.908 84.9583C725.089 79.2169 717.835 69.8336 717.835 51.581C717.835 33.3285 732.069 21.3316 759.48 21.3316C786.891 21.3316 801.676 30.972 806.405 54.4517H828.215C824.313 21.3316 799.427 3.0791 759.48 3.0791C721.737 3.0791 695.198 24.9736 695.198 53.6805C695.198 86.8006 720.084 99.0546 761.96 105.053C799.977 110.795 810.308 119.664 810.308 140.787C810.308 161.911 790.473 176.007 764.761 176.007C724.538 176.007 715.034 157.24 711.957 135.088H688.495C692.122 166.88 711.407 194.259 764.761 194.259M621.413 191.902H645.702V5.43564H621.413V191.86V191.902ZM467.734 191.902H583.395V173.393H492.023V5.43564H467.734V191.86V191.902ZM306.801 191.902H428.338V173.393H331.09V105.867H405.427V87.3577H331.09V23.9881H423.288V5.47849H306.755V191.86L306.801 191.902Z" fill="white"/>
</g>
<defs>
<clipPath id="clip0_317_1663">
<rect width="1364.71" height="200" fill="white"/>
</clipPath>
</defs>
</svg>
