<svg width="188" height="200" viewBox="0 0 188 200" fill="none" xmlns="http://www.w3.org/2000/svg">
<path fill-rule="evenodd" clip-rule="evenodd" d="M87.8402 198.428C88.9245 199.041 89.8933 199.334 90.8058 199.559C92.0651 199.878 93.2026 199.997 94.2901 200C96.6339 200.006 98.8214 199.537 102.034 197.694L179.193 155.641C184.974 152.325 187.499 148.856 187.499 142.222V56.6663C187.499 50.032 183.446 47.0664 177.63 43.7508L100.099 1.55412C99.5109 1.19718 98.893 0.89087 98.2526 0.638504C97.0681 0.199422 95.8126 -0.0167143 94.5495 0.00100785C92.5995 0.00100785 90.6714 0.0103827 87.1745 2.01662L11.4687 42.8258C5.68747 46.1383 0 50.032 0 56.6695L0.156249 142.594C0.156249 149.228 4.9906 153.538 10.8031 156.856L87.8433 198.428H87.8402Z" fill="#32C3FF"/>
<path fill-rule="evenodd" clip-rule="evenodd" d="M117.354 67.8074V96.4885H123.354V71.8792L133.817 92.4166C135.545 95.7479 137.091 96.8604 139.454 96.8604C142.001 96.8604 143.454 95.2854 143.454 91.7698V63.0887H137.454V87.6073L126.995 67.1605C125.357 63.923 123.629 62.8137 121.357 62.8137C118.901 62.7199 117.357 64.2918 117.357 67.8074H117.354ZM97.9792 96.8604C108.167 96.8604 111.079 91.8604 111.079 79.8355C111.079 67.7168 108.17 62.8137 97.9823 62.8137C87.7043 62.7199 84.7949 67.7168 84.7949 79.8355C84.7949 91.9541 87.7043 96.8604 97.9823 96.8604H97.9792ZM91.6167 79.8355C91.6167 72.9917 91.798 68.3636 97.9823 68.3636C104.167 68.3636 104.348 72.9886 104.348 79.8355C104.348 86.6792 104.167 91.3073 97.9823 91.3073C91.7074 91.2135 91.6167 86.5885 91.6167 79.8386V79.8355ZM55.5982 63.648V96.4916H62.2388V83.7198C63.42 83.8136 64.8762 83.9042 66.2387 83.9042L72.97 96.4854H80.6105L73.0606 83.0698C76.9731 81.8667 79.3387 79.0917 79.3387 73.1699C79.3387 64.1074 73.4262 62.7168 66.1512 62.7168C62.3294 62.7168 58.42 63.0855 55.5982 63.6418V63.648ZM62.2388 78.3542V68.2699C63.6044 68.0855 65.1481 67.9949 66.4231 67.9949C71.2418 67.9949 72.8793 69.473 72.8793 73.173C72.8793 77.4292 70.4231 78.5417 66.3325 78.5417C65.0575 78.5417 63.7856 78.5417 62.42 78.3542H62.3294H62.2388ZM41.7764 96.4885H48.5045V63.0887H41.7795V96.4885H41.7764ZM97.9823 96.8604C97.9823 96.8604 87.7043 96.8604 97.9823 96.8604V96.8604ZM98.5979 123.016C98.5979 134.073 101.004 138.876 110.801 138.876C113.295 138.876 115.52 138.604 117.482 138.241L117.213 136.157C115.523 136.429 113.829 136.61 112.138 136.61C102.517 136.61 101.27 132.17 101.27 123.016C101.27 113.867 102.339 109.426 112.138 109.426C113.829 109.426 115.61 109.698 117.213 109.879L117.482 107.704C115.28 107.283 113.043 107.071 110.801 107.07C101.004 107.163 98.5979 111.963 98.5979 123.016V123.016ZM81.1387 108.973L70.0075 138.604H72.6793L76.0637 129.36H89.8699L93.2542 138.604H96.0167L84.9668 108.97C84.523 107.792 83.898 107.157 83.0074 107.157C82.2074 107.157 81.6699 107.701 81.1355 108.97L81.1387 108.973ZM83.0105 110.695L89.0667 127.185H76.8637L83.0105 110.695ZM140.016 107.523L125.854 121.929V107.523H123.273V138.604H125.854V123.291L140.285 138.604H143.67L128.438 122.563L143.226 107.523H140.016ZM61.8106 107.523V121.57H44.6232V107.523H42.0389V138.604H44.6232V123.832H61.9044V138.604H64.4856V107.523H61.8138H61.8106Z" fill="white"/>
</svg>
