<svg width="171" height="200" viewBox="0 0 171 200" fill="none" xmlns="http://www.w3.org/2000/svg">
<g clip-path="url(#clip0_317_1582)">
<path d="M15.8594 136.381V149.863H19.8529V142.737C19.8529 140.689 20.9674 139.99 22.1747 139.99C23.3357 139.99 24.3572 140.898 24.4038 142.575V149.84H28.3972V142.714C28.3972 140.758 29.4421 139.967 30.6959 139.967C31.88 139.967 32.9017 140.898 32.9017 142.645V149.84H36.8719V142.202C36.8719 138.127 34.8751 136.078 31.6942 136.078C30.7423 136.078 28.9544 136.357 27.6542 138.476C26.9112 136.916 25.4717 136.101 23.3357 136.101C21.8961 136.101 20.4566 136.893 19.8297 138.313V136.357H15.8594V136.381Z" fill="white"/>
<path d="M40.4414 136.38V149.862H44.435V145.158C44.435 141.619 45.4797 139.803 47.7784 139.803C48.4052 139.803 49.1018 139.873 49.8216 140.199L50.5414 136.59C49.8912 136.264 49.1948 136.101 48.2427 136.101C46.8497 136.101 45.1314 137.148 44.435 139.663V136.403H40.4414V136.38Z" fill="white"/>
<path d="M55.6599 147.721C55.6599 146.347 54.499 145.322 53.1522 145.322C51.8056 145.322 50.668 146.324 50.668 147.721C50.668 149.141 51.7824 150.142 53.1522 150.142C54.5222 150.142 55.6599 149.118 55.6599 147.721Z" fill="white"/>
<path d="M30.7191 164.51C31.9032 164.51 32.9249 165.441 32.9249 167.187V174.359H36.8951V166.722C36.8951 162.647 34.9215 160.598 31.7174 160.598C30.7655 160.598 28.9776 160.877 27.6774 162.996C26.9344 161.436 25.4949 160.621 23.3589 160.621C21.9193 160.621 20.4798 161.436 19.8529 162.856V160.9H15.8594V174.359H19.8529V167.234C19.8529 165.185 20.9906 164.486 22.1747 164.486C23.3357 164.486 24.3572 165.371 24.4036 167.094V174.359H28.3972V167.234C28.4204 165.301 29.4421 164.51 30.7191 164.51Z" fill="white"/>
<path d="M50.4121 172.845V174.382H54.3825V160.899H50.4121V162.413C49.3674 160.899 47.3706 160.62 46.5115 160.62C43.0985 160.62 39.6621 163.298 39.6621 167.629C39.6621 171.96 43.0753 174.638 46.5115 174.638C47.5332 174.638 49.53 174.149 50.4121 172.845ZM43.7951 167.629C43.7951 165.696 45.49 164.415 47.1617 164.415C48.8102 164.415 50.4121 165.603 50.4121 167.629C50.4121 169.655 48.8102 170.842 47.1617 170.842C45.4668 170.842 43.7951 169.562 43.7951 167.629Z" fill="white"/>
<path d="M58.0449 160.899V174.382H62.0385V169.678C62.0385 166.139 63.0602 164.322 65.3588 164.322C65.9856 164.322 66.6822 164.369 67.4019 164.718L68.1217 161.109C67.4949 160.783 66.7751 160.62 65.8232 160.62C64.4532 160.62 62.7119 161.668 62.0385 164.183V160.923H58.0449V160.899Z" fill="white"/>
<path d="M76.4994 164.462C77.5209 164.462 78.5426 164.951 79.0766 165.813L82.327 163.484C81.0268 161.668 78.8677 160.62 76.4994 160.62C72.6451 160.62 69.1855 163.368 69.1855 167.606C69.1855 171.844 72.6219 174.684 76.4994 174.684C78.9141 174.684 81.0734 173.613 82.327 171.797L79.0766 169.492C78.5426 170.353 77.5209 170.842 76.4994 170.842C74.8045 170.842 73.156 169.538 73.156 167.606C73.156 165.673 74.7813 164.462 76.4994 164.462Z" fill="white"/>
<path d="M91.1584 160.62C87.3041 160.62 84.1465 163.368 84.1465 167.606C84.1465 171.844 87.3041 174.684 91.1584 174.684C93.4337 174.684 95.9414 173.962 97.288 171.937L94.3856 169.934C93.7356 170.796 92.5514 171.215 91.4601 171.215C90.0671 171.215 88.349 170.516 88.1399 168.956H97.9846C98.0078 168.607 98.031 168.071 98.031 167.722C98.0078 163.484 94.9661 160.62 91.1584 160.62ZM88.1865 166.441C88.5348 164.742 90.0439 164.136 91.1816 164.136C92.2961 164.136 93.8052 164.811 93.991 166.441H88.1865Z" fill="white"/>
<path d="M104.756 153.588H100.763V174.382H104.756V153.588Z" fill="white"/>
<path d="M22.8197 191.077L20.5444 190.471C19.7318 190.262 19.3835 189.866 19.3835 189.47C19.3603 188.864 19.9175 188.469 20.7766 188.469C21.4267 188.469 22.2857 188.632 22.3091 189.656H26.0703C26.0472 186.373 23.2378 185.186 20.5444 185.186C17.735 185.186 15.3435 187.025 15.3203 189.027C15.2971 190.262 15.3203 192.311 19.3603 193.428L21.1248 193.894C22.0999 194.15 22.4482 194.476 22.4482 195.058C22.4482 195.757 21.7052 196.153 20.823 196.176C19.7318 196.176 18.8727 195.384 18.8495 194.616H15.1113C15.1346 197.62 17.9904 199.273 20.7301 199.273C23.5395 199.273 26.5346 197.922 26.5346 195.058C26.4882 194.127 26.0703 191.962 22.8197 191.077Z" fill="white"/>
<path d="M35.8031 188.982C36.848 188.982 37.8463 189.471 38.3803 190.332L41.6307 188.004C40.3305 186.188 38.1714 185.14 35.8031 185.14C31.9488 185.14 28.4893 187.864 28.4893 192.125C28.4893 196.363 31.9488 199.18 35.8031 199.18C38.2178 199.18 40.3771 198.109 41.6307 196.293L38.3803 193.988C37.8463 194.85 36.8246 195.339 35.8031 195.339C34.1082 195.339 32.4597 194.035 32.4597 192.102C32.4597 190.169 34.1082 188.982 35.8031 188.982Z" fill="white"/>
<path d="M52.168 185.14C50.891 185.14 48.9407 185.861 48.4067 187.538V178.107H44.4131V198.901H48.4067V191.776C48.4067 189.727 49.8229 189.028 51.0767 189.028C52.2842 189.028 53.561 189.96 53.561 191.706V198.901H57.5546V191.566C57.5546 187.515 55.7203 185.14 52.168 185.14Z" fill="white"/>
<path d="M67.239 185.14C63.4311 185.14 60.2734 187.887 60.2734 192.125C60.2734 196.363 63.4311 199.134 67.239 199.134C71.0468 199.134 74.2277 196.363 74.2277 192.125C74.2277 187.887 71.0234 185.14 67.239 185.14ZM67.239 195.222C65.5905 195.222 64.2207 194.011 64.2207 192.125C64.2207 190.309 65.5905 189.075 67.239 189.075C68.9107 189.075 70.2805 190.309 70.2805 192.125C70.2805 194.011 68.8875 195.222 67.239 195.222Z" fill="white"/>
<path d="M83.2661 185.14C79.4584 185.14 76.3008 187.887 76.3008 192.125C76.3008 196.363 79.4584 199.134 83.2661 199.134C87.0508 199.134 90.2548 196.363 90.2548 192.125C90.2548 187.887 87.0508 185.14 83.2661 185.14ZM83.2661 195.222C81.6178 195.222 80.2478 194.011 80.2478 192.125C80.2478 190.309 81.641 189.075 83.2661 189.075C84.9378 189.075 86.3078 190.309 86.3078 192.125C86.3078 194.011 84.9378 195.222 83.2661 195.222Z" fill="white"/>
<path d="M97.1333 178.107H93.1396V198.901H97.1333V178.107Z" fill="white"/>
<path d="M139.168 41.8195V33.5068C139.168 31.2248 140.376 30.3168 141.838 30.3168C143.208 30.3168 144.416 31.3878 144.416 33.437V41.8195H149.036V32.9014C149.036 28.1512 146.714 25.7529 142.999 25.7529C141.885 25.7529 139.818 26.0789 138.309 28.5472C137.427 26.7308 135.755 25.7761 133.271 25.7761C131.599 25.7761 129.904 26.7076 129.185 28.3608V26.0789H124.518V41.7963H129.185V33.4836C129.185 31.0853 130.485 30.2936 131.901 30.2936C133.224 30.2936 134.455 31.3414 134.478 33.3206V41.7963H139.168V41.8195Z" fill="white"/>
<path d="M136.128 0L104.04 32.18H56.5127C55.4678 17.4638 43.2318 5.82126 28.3025 5.82126C12.6999 5.82126 -0.000488281 18.5582 -0.000488281 34.2057C-0.000488281 49.8534 12.6999 62.5902 28.3025 62.5902C43.2318 62.5902 55.4678 50.9245 56.5127 36.2315H104.064L134.154 66.4089H113.676V111.466H158.58V66.4089H138.101L170.212 34.2057L136.128 0ZM154.563 107.414H117.693V70.4372H154.563V107.414ZM28.3025 58.5387C14.9288 58.5387 4.03949 47.6179 4.03949 34.1826C4.03949 20.7703 14.9288 9.84957 28.3025 9.84957C41.6763 9.84957 52.5655 20.7703 52.5655 34.1826C52.5655 47.6179 41.6763 58.5387 28.3025 58.5387ZM136.128 5.70485L164.547 34.1826L136.128 62.6834L107.732 34.2057L136.128 5.70485Z" fill="white"/>
<path d="M136.011 93.7218C134.734 93.7218 133.736 92.8136 133.689 91.9055H129.324C129.348 95.3982 132.668 97.331 135.872 97.331C139.169 97.331 142.652 95.7476 142.652 92.4178C142.652 91.4165 142.187 88.8784 138.38 87.8306L135.733 87.1321C134.804 86.8993 134.386 86.4335 134.363 85.9446C134.34 85.2459 134.99 84.757 136.011 84.757C136.754 84.757 137.753 84.9665 137.799 86.1308H142.187C142.164 82.2889 138.867 80.915 135.733 80.915C132.435 80.915 129.673 83.0806 129.626 85.3857C129.603 86.8293 129.626 89.2278 134.316 90.5084L136.36 91.044C137.497 91.3467 137.915 91.7193 137.915 92.3944C137.915 93.2095 137.033 93.6984 136.011 93.7218Z" fill="white"/>
<path d="M34.6761 25.9629C33.5616 25.9629 31.4952 26.3123 29.9859 28.7571C29.1037 26.941 27.432 26.0095 24.9476 26.0095C23.2759 26.0095 21.581 26.941 20.8612 28.5942V26.3123H16.1943V42.0297H20.838V33.7169C20.838 31.3186 22.1382 30.5269 23.5546 30.5269C24.9012 30.5269 26.1084 31.5746 26.1316 33.554V42.0297H30.7986V33.7169C30.7986 31.435 32.0059 30.5269 33.4918 30.5269C34.8618 30.5269 36.0691 31.598 36.0691 33.6471V42.0297H40.7127V33.1114C40.7127 28.3614 38.391 25.9629 34.6761 25.9629Z" fill="white"/>
</g>
<defs>
<clipPath id="clip0_317_1582">
<rect width="170.213" height="200" fill="white"/>
</clipPath>
</defs>
</svg>
