<svg width="1028" height="200" viewBox="0 0 1028 200" fill="none" xmlns="http://www.w3.org/2000/svg">
<g clip-path="url(#clip0_317_1644)">
<path fill-rule="evenodd" clip-rule="evenodd" d="M235.472 75.0648C230.472 60.6492 221.251 54.935 206.056 54.935C195.342 54.935 182.42 57.6622 182.42 70.844C182.42 83.3116 197.355 86.2986 207.095 88.0518C220.992 91.0389 239.693 94.4804 251.641 102.467C265.537 111.688 274.043 125.844 274.043 142.792C274.043 159.415 266.056 175.39 252.875 185.584C239.173 196.299 220.537 199.545 203.329 199.545C171.186 199.545 142.095 185.584 134.368 152.208L171.186 143.766C176.186 161.688 189.108 167.922 206.836 167.922C218.264 167.922 233.459 163.701 233.459 149.48C233.459 135.325 213.979 132.532 203.589 130.325C173.199 124.091 143.329 115.13 143.329 77.7921C143.329 61.883 149.563 47.9869 161.771 37.7272C174.173 27.3375 188.914 23.8311 204.563 23.8311C234.433 23.8311 258.849 34.2856 269.303 63.896L235.472 75.0648ZM364.953 197.013C363.459 190.519 362.94 183.831 363.199 177.338C352.745 192.273 341.771 199.48 322.875 199.48C300.472 199.48 283.005 187.532 283.005 163.636C283.005 145 294.758 132.273 311.446 126.104C325.862 120.584 345.992 119.61 361.446 118.117V115.13C361.446 109.61 361.966 103.182 358.199 98.4415C354.953 94.2207 348.784 92.4674 343.264 92.4674C331.576 92.4674 321.381 98.4415 321.381 110.909L286.771 107.662C290.472 77.0778 320.407 68.1168 347.031 68.1168C359.953 68.1168 376.901 71.1038 387.095 79.5453C400.018 89.9999 398.784 103.961 398.784 119.091V178.052C398.784 184.545 399.303 190.779 401.316 197.013H364.953ZM361.446 136.493C347.485 138.052 321.836 141.234 321.836 159.675C321.836 169.61 327.81 176.364 338.005 176.364C345.472 176.364 352.225 172.402 356.446 165.909C361.706 157.922 361.446 150.519 361.446 141.493V136.493ZM418.979 26.2986H455.537V86.4934H456.576C462.81 74.0259 473.199 68.0518 487.42 68.0518C523.524 68.0518 534.498 103.896 534.498 133.766C534.498 166.883 521.251 199.48 483.199 199.48C465.017 199.48 456.316 192.727 447.095 177.597C442.615 183.052 441.121 190.26 438.849 197.013H418.979V26.2986ZM456.056 143.961C456.056 150.909 456.316 158.896 460.277 165.13C463.784 170.584 468.979 173.831 475.732 173.831C496.381 173.831 496.381 147.467 496.381 133.766C496.381 119.61 496.381 93.1817 476.251 93.1817C458.524 93.1817 456.056 112.402 456.056 125.844V143.961ZM623.849 196.948C622.355 190.454 621.901 183.766 622.16 177.273C611.641 192.208 600.732 199.415 581.771 199.415C559.368 199.415 541.901 187.467 541.901 163.571C541.901 144.935 553.654 132.208 570.342 126.039C584.758 120.519 604.953 119.545 620.407 118.052V115.065C620.407 109.61 620.862 103.117 617.16 98.3765C613.914 94.1557 607.68 92.4025 602.225 92.4025C590.472 92.4025 580.277 98.3765 580.277 110.844L545.667 107.597C549.433 77.0129 579.303 68.0518 605.927 68.0518C618.914 68.0518 635.797 71.0388 645.992 79.4804C658.979 89.935 657.745 103.896 657.745 119.026V178.052C657.745 184.48 658.199 190.714 660.212 196.948H623.849ZM620.407 136.428C606.381 137.987 580.797 141.169 580.797 159.61C580.797 169.545 586.771 176.299 596.966 176.299C604.433 176.299 611.121 172.338 615.407 165.844C620.602 157.857 620.407 150.454 620.407 141.428V136.428ZM751.121 196.948V177.273H750.602C743.589 190.714 733.134 199.415 716.966 199.415C681.381 199.415 671.381 164.545 671.381 135.195C671.381 105.065 680.862 67.9869 717.745 67.9869C731.901 67.9869 741.381 72.2077 749.368 83.9609V26.2337H785.927V196.948H751.121ZM749.368 126.753C749.368 114.545 748.394 93.6363 731.706 93.6363C710.797 93.6363 710.018 121.039 710.018 136.169C710.018 149.87 712.03 173.052 730.212 173.052C736.966 173.052 743.134 168.506 746.121 162.857C749.108 157.078 749.368 150.39 749.368 144.156V126.753ZM839.238 139.935L839.043 146.169C839.043 161.104 847.485 173.312 863.394 173.312C874.628 173.312 885.797 165.065 885.797 153.377L919.693 155.844C919.693 162.078 905.017 199.415 862.16 199.415C824.303 199.415 799.693 173.052 799.693 135.454C799.693 98.1168 821.836 68.0518 861.186 68.0518C878.849 68.0518 897.03 75.9739 907.485 90.4544C917.94 104.87 920.667 122.792 920.472 139.935H839.238ZM883.784 118.312C883.069 104.61 878.524 91.883 862.615 91.883C846.446 91.883 840.212 103.896 838.979 118.312H883.784ZM936.576 26.2337H973.134V196.948H936.576V26.2337ZM991.316 26.2337H1027.94V196.948H991.316V26.2337Z" fill="white"/>
<path d="M67.7922 136.039C30.3247 136.039 0 105.779 0 68.3113C0 30.8437 30.3247 0.583984 67.7922 0.583984C105.26 0.583984 135.584 30.8437 135.584 68.3113C135.584 105.779 105.26 136.039 67.7922 136.039Z" fill="#006DFF"/>
<path fill-rule="evenodd" clip-rule="evenodd" d="M88.8933 98.5069C83.9582 102.143 77.3348 102.143 71.4907 102.143H41.166V34.416H71.4907C76.8803 34.416 82.3998 34.416 87.0102 37.403C92.4647 40.8446 95.3219 45.7797 95.3219 52.2082C95.3219 59.8706 90.192 65.0654 83.0491 66.8186V67.0134C91.4907 68.7017 97.205 75.1303 97.205 83.8965C97.205 89.8056 93.6335 95.0654 88.8933 98.5069ZM76.6206 74.6108C74.3478 73.3121 71.2309 73.3121 68.6335 73.3121H57.0102V89.6108H67.9842C70.8413 89.6108 74.4777 89.8056 76.9452 88.1173C79.218 86.6238 80.5167 83.8965 80.5167 81.1043C80.5167 78.5719 78.8933 75.9095 76.6206 74.6108ZM76.166 59.6758C78.0491 58.3121 79.0232 55.8446 79.0232 53.5719C79.0232 51.1043 77.8543 48.7667 75.6465 47.468C73.3738 46.1693 69.218 46.4939 66.5556 46.4939H57.0102V61.2991H67.7894C70.5167 61.2991 73.7634 61.4939 76.166 59.6758Z" fill="white"/>
</g>
<defs>
<clipPath id="clip0_317_1644">
<rect width="1027.92" height="200" fill="white"/>
</clipPath>
</defs>
</svg>
