<svg width="828" height="201" viewBox="0 0 828 201" fill="none" xmlns="http://www.w3.org/2000/svg">
<g clip-path="url(#clip0_317_1617)">
<path d="M133.741 191.323C144.372 201.914 161.732 201.871 172.406 191.216C177.581 186.06 180.449 179.207 180.493 171.967C180.493 164.706 177.668 157.897 172.514 152.741C169.171 149.39 162.637 146.447 154.119 144.449C131.585 139.078 113.816 130.893 101.093 120.109C111.853 132.719 120.005 150.464 125.417 173.02C127.444 181.506 130.42 188.015 133.741 191.323Z" fill="#9AC43A"/>
<path d="M180.473 47.885C180.452 40.624 177.562 33.7926 172.387 28.6154C167.19 23.4382 160.332 20.5811 153.043 20.5596H152.957C145.712 20.5596 138.897 23.3737 133.743 28.508C130.379 31.8592 127.425 38.3683 125.42 46.8323C119.921 69.7539 111.467 87.756 100.232 100.495C113.02 89.2812 131.091 80.8817 154.1 75.4252C162.618 73.3844 169.173 70.4198 172.516 67.0901C177.67 61.9558 180.495 55.146 180.473 47.885Z" fill="white"/>
<path d="M47.6653 28.4435C42.382 23.1804 35.4168 20.5596 28.4515 20.5596C21.4862 20.5596 14.3916 23.2234 9.02208 28.551C3.84665 33.7282 0.978596 40.581 0.957031 47.8205C0.957031 55.0815 3.76039 61.8914 8.93582 67.0256C12.2567 70.3339 18.8123 73.2984 27.3517 75.3393C50.0805 80.7313 67.9789 88.9375 80.6802 99.7216C69.7903 87.0256 61.3586 68.9161 56.0538 46.7249C54.0268 38.2824 51.0509 31.7733 47.6869 28.4221L47.6653 28.4435Z" fill="#9AC43A"/>
<path d="M28.4634 199.378C35.709 199.378 42.5233 196.542 47.6556 191.408C51.0196 188.078 53.9739 181.591 56.0225 173.084C61.3273 150.935 69.3277 133.384 79.8295 120.796C67.1713 131.279 49.5532 139.249 27.3204 144.512C18.8025 146.532 12.2686 149.475 8.9261 152.826C3.77223 157.96 0.947308 164.792 0.968873 172.052C0.990437 179.313 3.85849 186.145 9.05548 191.322C14.274 196.521 21.1531 199.378 28.4634 199.378Z" fill="white"/>
<path d="M307.634 92.933C302.652 92.933 298.857 92.0093 296.248 90.1618C293.617 88.3144 291.956 86.2735 291.223 84.0179H290.684V91.3004H277.4V70.2263H290.684V72.396C290.684 75.8976 291.762 78.5614 293.94 80.3659C296.118 82.1704 299.633 83.0727 304.507 83.0727C308.841 83.0727 312.011 82.4067 313.995 81.0534C315.979 79.7 316.971 77.6377 316.971 74.845C316.971 72.5894 316.238 70.8493 314.793 69.6463C313.348 68.4218 310.954 67.3262 307.612 66.338L301.25 64.5765C293.38 62.4068 287.579 59.5067 283.827 55.8547C280.074 52.2027 278.198 47.2833 278.198 41.0749C278.198 33.9643 280.549 28.4863 285.25 24.6625C289.951 20.8387 296.14 18.9268 303.817 18.9268C308.604 18.9268 312.27 19.829 314.793 21.6335C317.316 23.438 318.955 25.4574 319.666 27.713H320.206V20.5594H333.489V41.6335H320.206V39.206C320.206 35.7903 319.149 33.191 317.014 31.4294C314.879 29.6679 311.429 28.7871 306.642 28.7871C299.763 28.7871 296.334 31.2576 296.334 36.22C296.334 38.5615 297.024 40.452 298.426 41.8913C299.827 43.3306 302.372 44.5121 306.081 45.3929L311.903 46.8751C315.699 47.8633 319.041 48.9804 321.931 50.2478C324.82 51.5153 327.236 53.0191 329.176 54.7806C331.117 56.5421 332.583 58.6474 333.575 61.1179C334.567 63.5883 335.063 66.5529 335.063 69.9685C335.063 77.4443 332.54 83.1371 327.473 87.0469C322.405 90.9567 315.763 92.933 307.547 92.933H307.634Z" fill="#9AC43A"/>
<path d="M369.21 92.6754C363.797 92.6754 359.787 91.4724 357.22 89.0879C354.654 86.7034 353.36 83.1588 353.36 78.4971V30.0117H343.872V20.5596H347.538C350.514 20.5596 352.713 19.9151 354.115 18.6047C355.517 17.2943 356.854 15.3394 358.104 12.74L363.797 0.989258H373.976V20.5811H389.567V30.0332H373.976V82.1706H389.567V90.1405C388.122 90.7635 385.534 91.365 381.847 91.9021C378.138 92.4391 373.933 92.7184 369.232 92.7184L369.21 92.6754Z" fill="#9AC43A"/>
<path d="M398.079 82.4077H406.209V34.2016L398.079 32.4401V24.7494L426.415 18.9492V32.3112H426.954C428.226 28.5303 430.253 25.3509 433.057 22.7945C435.86 20.2382 439.526 18.9492 444.033 18.9492C448.54 18.9492 451.947 20.1522 454.47 22.5368C456.993 24.9213 458.265 28.1866 458.265 32.3326C458.265 35.9417 457.316 38.7773 455.419 40.8396C453.521 42.9019 450.847 43.9545 447.418 43.9545C444.162 43.9545 441.682 43.0738 439.957 41.3122C438.232 39.5507 437.391 37.4669 437.391 35.0394C437.391 33.9653 437.607 32.9771 438.059 32.0749C438.512 31.1726 439.051 30.5926 439.677 30.3133L439.547 29.6474C439.267 29.5614 438.879 29.5185 438.318 29.5185C436.873 29.5185 435.472 29.9266 434.113 30.743C432.755 31.5593 431.547 32.5904 430.447 33.8579C429.369 35.1253 428.485 36.5217 427.795 38.0469C427.126 39.5722 426.781 41.0544 426.781 42.4937V82.4722H437.628V91.3873H398.036V82.4722L398.079 82.4077Z" fill="#9AC43A"/>
<path d="M487.682 92.933C480.005 92.933 474.42 91.15 470.948 87.6054C467.476 84.0394 465.729 79.077 465.729 72.6753C465.729 58.7118 476.08 51.7516 496.782 51.7516H506.27V44.061C506.27 38.5615 505.235 34.4369 503.144 31.6442C501.073 28.8515 497.451 27.4552 492.297 27.4552C490.399 27.4552 488.782 27.5841 487.423 27.8634C486.065 28.1426 484.9 28.4864 483.908 28.9375V29.6034C484.814 30.0546 485.698 30.8709 486.561 32.0309C487.423 33.2124 487.854 34.7806 487.854 36.757C487.854 39.4638 486.992 41.7409 485.288 43.5669C483.563 45.4143 480.997 46.3381 477.568 46.3381C474.851 46.3381 472.587 45.3929 470.797 43.5024C468.986 41.612 468.08 39.2275 468.08 36.3488C468.08 34.1791 468.705 32.0524 469.978 29.9257C471.25 27.8204 473.148 25.9514 475.671 24.3188C478.194 22.7076 481.342 21.3972 485.094 20.409C488.846 19.4209 493.159 18.9268 498.033 18.9268C507.888 18.9268 515.155 21.0105 519.856 25.1996C524.557 29.3886 526.907 35.3177 526.907 42.9654V82.4067H535.037V90.0974C533.506 90.9996 531.522 91.6871 529.064 92.1812C526.605 92.6752 524.082 92.933 521.473 92.933C516.492 92.933 512.998 91.7945 510.971 89.4959C508.944 87.1973 507.931 84.3401 507.931 80.9245V80.6452H507.111C506.486 82.1704 505.688 83.6527 504.739 85.092C503.79 86.5313 502.561 87.8417 501.073 89.0018C499.585 90.1618 497.752 91.107 495.574 91.8374C493.396 92.5464 490.787 92.9116 487.704 92.9116L487.682 92.933ZM495.424 80.7956C498.766 80.7956 501.418 80.0222 503.359 78.497C505.3 76.9717 506.27 74.3079 506.27 70.5271V59.8504H498.96C494.626 59.8504 491.391 60.7527 489.256 62.5572C487.121 64.3617 486.065 66.9181 486.065 70.2478V72.4175C486.065 75.2961 486.927 77.4229 488.631 78.7548C490.356 80.1081 492.599 80.7741 495.402 80.7741L495.424 80.7956Z" fill="#9AC43A"/>
<path d="M568.087 92.6754C562.653 92.6754 558.663 91.4724 556.097 89.0879C553.531 86.7034 552.237 83.1588 552.237 78.4971V30.0117H542.749V20.5596H546.415C549.391 20.5596 551.59 19.9151 552.992 18.6047C554.394 17.2943 555.731 15.3394 556.981 12.74L562.674 0.989258H572.853V20.5811H588.444V30.0332H572.853V82.1706H588.444V90.1405C586.999 90.7635 584.411 91.365 580.724 91.9021C577.015 92.4391 572.81 92.7184 568.109 92.7184L568.087 92.6754Z" fill="#9AC43A"/>
<path d="M631.798 92.933C626.191 92.933 621.253 92.0093 616.961 90.1618C612.67 88.3144 609.047 85.758 606.114 82.4712C603.182 79.1844 600.939 75.2746 599.408 70.7204C597.877 66.1662 597.101 61.2038 597.101 55.7903C597.101 50.119 597.898 44.9847 599.473 40.3875C601.047 35.7903 603.311 31.9235 606.244 28.7656C609.177 25.6077 612.713 23.1802 616.81 21.4831C620.929 19.7646 625.501 18.9268 630.568 18.9268C635.636 18.9268 640.186 19.7001 644.262 21.2039C648.337 22.7291 651.788 24.8988 654.634 27.7345C657.481 30.5701 659.68 33.9858 661.211 38.0245C662.742 42.0631 663.519 46.5529 663.519 51.4723V56.048H618.924V61.5045C618.924 67.6055 620.498 72.2027 623.668 75.2961C626.838 78.3896 631.043 79.9363 636.283 79.9363C641.156 79.9363 645.103 78.8192 648.079 76.5851C651.054 74.3509 653.189 71.6442 654.44 68.4648L661.901 72.9116C661.082 75.1672 659.917 77.4658 658.386 79.8074C656.855 82.149 654.871 84.2757 652.413 86.2306C649.976 88.164 647.043 89.7537 643.593 91.0211C640.164 92.2886 636.218 92.9116 631.798 92.9116V92.933ZM618.924 47.6915H642.235V45.7795C642.235 39.2489 641.2 34.6732 639.108 32.0524C637.038 29.4316 634.191 28.0997 630.568 28.0997C626.946 28.0997 624.099 29.4101 622.029 32.0524C619.959 34.6732 618.902 39.2704 618.902 45.7795V47.6915H618.924Z" fill="#9AC43A"/>
<path d="M707.718 119.959C701.033 119.959 695.469 119.593 691.049 118.863C686.628 118.133 683.07 117.101 680.417 115.748C677.743 114.395 675.867 112.762 674.789 110.872C673.711 108.96 673.172 106.79 673.172 104.362C673.172 100.925 674.638 98.154 677.571 96.0273C680.504 93.9006 684.148 92.4827 688.482 91.7523V91.2153C685.313 90.5064 682.768 89.0026 680.827 86.704C678.886 84.4054 677.916 81.4624 677.916 77.8748C677.916 73.7288 679.296 70.5279 682.056 68.2293C684.817 65.9307 688.137 64.341 692.019 63.4388V62.9017C687.404 61.0972 683.868 58.4978 681.388 55.0822C678.908 51.6665 677.657 47.3915 677.657 42.2788C677.657 38.4979 678.369 35.1896 679.835 32.311C681.28 29.4324 683.307 27.0049 685.938 25.0285C688.547 23.0522 691.717 21.5484 695.426 20.5173C699.135 19.4861 703.232 18.9705 707.761 18.9705C711.017 18.9705 714.058 19.2498 716.904 19.7869C719.751 20.3239 722.489 21.2262 725.099 22.4936C726.091 12.5903 730.576 7.62793 738.512 7.62793C741.143 7.62793 743.32 8.37981 745.089 9.86208C746.857 11.3444 747.741 13.4926 747.741 16.2853C747.741 18.9061 746.943 20.9899 745.369 22.5581C743.795 24.1263 741.552 24.9211 738.663 24.9211C735.32 24.9211 732.689 23.804 730.792 21.5484H730.253V25.5011C732.689 27.4775 734.609 29.8191 736.01 32.5258C737.412 35.2326 738.102 38.4549 738.102 42.2358C738.102 46.0167 737.369 49.3464 735.924 52.225C734.479 55.1037 732.431 57.5311 729.757 59.5075C727.083 61.4839 723.913 62.9876 720.204 64.0188C716.495 65.0499 712.376 65.5655 707.869 65.5655C705.971 65.5655 704.16 65.4796 702.435 65.2862C700.709 65.1144 699.049 64.8351 697.41 64.4699C694.887 66.0811 693.615 68.1649 693.615 70.6783C693.615 72.5687 694.326 73.9865 695.793 74.9318C697.238 75.877 699.545 76.3496 702.715 76.3496H718.435C723.309 76.3496 727.492 76.8222 730.986 77.7674C734.458 78.7126 737.283 80.0445 739.461 81.7631C741.638 83.4817 743.213 85.544 744.205 87.9285C745.197 90.313 745.693 92.9983 745.693 95.9843C745.693 103.482 742.566 109.346 736.334 113.6C730.102 117.853 720.57 119.959 707.718 119.959ZM689.82 102.601C689.82 105.501 690.962 107.671 693.27 109.067C695.577 110.463 699.308 111.172 704.462 111.172H713.131C723.525 111.172 728.721 108.079 728.721 101.913C728.721 98.9059 727.708 96.9081 725.681 95.9199C723.654 94.9102 720.678 94.4161 716.796 94.4161H693.744C692.472 95.4043 691.502 96.5214 690.833 97.7459C690.165 98.9704 689.82 100.582 689.82 102.579V102.601ZM707.847 56.3496C714.618 56.3496 718.004 52.1821 718.004 43.8684V40.6032C718.004 32.2895 714.618 28.122 707.847 28.122C701.076 28.122 697.669 32.2895 697.669 40.6032V43.8684C697.669 52.1821 701.054 56.3496 707.847 56.3496Z" fill="#9AC43A"/>
<path d="M768.314 119.959C762.902 119.959 758.697 118.627 755.699 115.963C752.723 113.299 751.214 110.141 751.214 106.446C751.214 103.203 752.141 100.689 753.996 98.8848C755.85 97.0802 758.395 96.178 761.651 96.178C764.907 96.178 767.258 97.1662 768.961 99.1425C770.686 101.119 771.527 103.418 771.527 106.038C771.527 107.198 771.355 108.315 770.988 109.347C770.622 110.378 770.212 111.216 769.759 111.839L770.039 112.655C770.406 112.741 770.902 112.784 771.527 112.784C773.878 112.784 776.056 111.516 778.04 109.003C780.024 106.489 781.921 102.88 783.733 98.1973L785.091 94.6957L759.322 29.4542H752.81V20.5391H788.455V29.4542H780.865L795.097 70.3778H795.917L810.278 29.4542H802.688V20.5391H827.638V29.4542H821.276L792.811 98.6055C791.819 101.033 790.633 103.525 789.296 106.103C787.938 108.659 786.321 110.958 784.423 112.999C782.525 115.018 780.261 116.694 777.652 118.004C775.021 119.314 771.916 119.959 768.293 119.959H768.314Z" fill="#9AC43A"/>
<path d="M311.72 200.99C306.028 200.99 301.025 200.044 296.733 198.154C292.442 196.264 288.819 193.664 285.886 190.313C282.954 186.983 280.733 183.073 279.245 178.562C277.757 174.051 277.002 169.153 277.002 163.847C277.002 157.896 277.951 152.655 279.848 148.122C281.746 143.568 284.334 139.722 287.655 136.564C290.954 133.407 294.836 131.022 299.321 129.411C303.806 127.8 308.615 126.983 313.769 126.983C322.093 126.983 328.476 128.702 332.961 132.118C337.425 135.533 339.668 139.851 339.668 145.093C339.668 148.509 338.719 151.237 336.821 153.256C334.924 155.275 332.293 156.285 328.95 156.285C325.608 156.285 323.02 155.404 321.23 153.643C319.419 151.881 318.513 149.561 318.513 146.683C318.513 144.341 319.117 142.408 320.346 140.882C321.575 139.357 322.934 138.219 324.487 137.51V136.693C323.581 136.414 322.524 136.156 321.295 135.877C320.066 135.598 318.427 135.469 316.357 135.469C310.836 135.469 306.545 137.209 303.483 140.689C300.399 144.169 298.868 149.153 298.868 155.641V169.712C298.868 175.684 300.27 180.216 303.073 183.331C305.877 186.446 309.758 187.993 314.739 187.993C319.721 187.993 323.818 186.833 326.815 184.491C329.791 182.15 331.926 179.4 333.177 176.242L340.768 180.71C339.948 182.966 338.805 185.308 337.317 187.714C335.829 190.141 333.91 192.332 331.56 194.287C329.209 196.242 326.406 197.853 323.15 199.099C319.893 200.345 316.098 200.968 311.764 200.968L311.72 200.99Z" fill="white"/>
<path d="M384.515 200.99C379.361 200.99 374.682 200.152 370.476 198.498C366.271 196.822 362.649 194.416 359.63 191.28C356.611 188.122 354.282 184.255 352.643 179.658C351.025 175.061 350.206 169.84 350.206 163.997C350.206 158.154 351.025 152.912 352.643 148.337C354.26 143.761 356.589 139.873 359.63 136.715C362.649 133.557 366.271 131.151 370.476 129.497C374.682 127.821 379.361 127.005 384.515 127.005C389.669 127.005 394.348 127.843 398.553 129.497C402.758 131.172 406.359 133.578 409.4 136.715C412.419 139.873 414.748 143.74 416.387 148.337C418.026 152.934 418.824 158.154 418.824 163.997C418.824 169.84 418.004 175.061 416.387 179.658C414.77 184.255 412.441 188.122 409.4 191.28C406.381 194.438 402.758 196.844 398.553 198.498C394.348 200.173 389.669 200.99 384.515 200.99ZM384.515 191.258C392.839 191.258 396.979 186.317 396.979 176.393V151.538C396.979 141.634 392.817 136.672 384.515 136.672C376.213 136.672 372.051 141.634 372.051 151.538V176.393C372.051 186.296 376.213 191.258 384.515 191.258Z" fill="white"/>
<path d="M430.343 190.463H438.473V142.257L430.343 140.496V132.805L458.678 127.005V140.367H459.347C460.619 136.758 462.797 133.643 465.924 130.979C469.051 128.315 473.407 126.983 479.013 126.983C485.159 126.983 489.968 128.1 493.461 130.356C496.933 132.612 499.305 135.941 500.578 140.345H501.117C502.562 136.844 504.998 133.729 508.427 131.022C511.856 128.315 516.427 126.962 522.12 126.962C530.617 126.962 536.612 129.132 540.083 133.45C543.555 137.767 545.302 144.298 545.302 153.041V190.463H553.432V199.379H517.635V190.463H524.687V153.858C524.687 149.089 523.889 145.694 522.315 143.654C520.74 141.634 518.045 140.625 514.249 140.625C512.718 140.625 511.23 140.839 509.786 141.226C508.341 141.634 507.047 142.257 505.926 143.117C504.804 143.976 503.899 145.071 503.209 146.425C502.518 147.778 502.195 149.346 502.195 151.151V190.463H509.247V199.379H474.55V190.463H481.601V153.858C481.601 149.089 480.803 145.694 479.229 143.654C477.655 141.634 475.002 140.625 471.293 140.625C468.123 140.625 465.298 141.462 462.819 143.117C460.339 144.792 459.088 147.456 459.088 151.151V190.463H466.14V199.379H430.343V190.463Z" fill="white"/>
<path d="M563.328 190.463H571.458V142.257L563.328 140.496V132.805L591.664 127.005V140.367H592.332C593.605 136.758 595.783 133.643 598.909 130.979C602.036 128.315 606.392 126.983 611.999 126.983C618.145 126.983 622.954 128.1 626.447 130.356C629.919 132.612 632.291 135.941 633.563 140.345H634.102C635.547 136.844 637.984 133.729 641.413 131.022C644.841 128.315 649.413 126.962 655.106 126.962C663.602 126.962 669.597 129.132 673.069 133.45C676.541 137.767 678.288 144.298 678.288 153.041V190.463H686.417V199.379H650.621V190.463H657.672V153.858C657.672 149.089 656.874 145.694 655.3 143.654C653.726 141.634 651.03 140.625 647.235 140.625C645.704 140.625 644.194 140.839 642.75 141.226C641.305 141.634 640.011 142.257 638.89 143.117C637.768 143.976 636.863 145.071 636.173 146.425C635.504 147.778 635.159 149.346 635.159 151.151V190.463H642.21V199.379H607.492V190.463H614.544V153.858C614.544 149.089 613.746 145.694 612.171 143.654C610.597 141.634 607.945 140.625 604.236 140.625C601.066 140.625 598.241 141.462 595.761 143.117C593.281 144.792 592.03 147.456 592.03 151.151V190.463H599.082V199.379H563.285V190.463H563.328Z" fill="white"/>
</g>
<defs>
<clipPath id="clip0_317_1617">
<rect width="826.681" height="200" fill="white" transform="translate(0.957031 0.989258)"/>
</clipPath>
</defs>
</svg>
