<svg width="1150" height="200" viewBox="0 0 1150 200" fill="none" xmlns="http://www.w3.org/2000/svg">
<g clip-path="url(#clip0_317_1654)">
<path d="M364.862 93.377H344.858V165.268H364.858L364.862 93.377ZM316.347 81.0801H392.696V64.0526H316.347V81.0801ZM418.912 137.987H449.182V128.241C449.64 124.245 449.247 120.197 448.029 116.363C446.811 112.53 444.795 108.997 442.115 105.998C439.435 102.999 436.15 100.601 432.477 98.9611C428.804 97.3216 424.825 96.4779 420.803 96.4853C416.331 96.4315 411.896 97.311 407.783 99.0678C403.67 100.825 399.969 103.42 396.915 106.688C393.862 109.956 391.524 113.825 390.051 118.048C388.577 122.271 388.001 126.755 388.358 131.213C387.711 135.79 388.106 140.454 389.515 144.857C390.923 149.259 393.309 153.287 396.492 156.638C399.676 159.989 403.576 162.577 407.901 164.209C412.226 165.841 416.864 166.474 421.468 166.061C429.616 166.469 437.737 164.843 445.1 161.331L439.829 147.816C434.176 149.542 428.307 150.452 422.397 150.52C420.04 150.429 417.728 149.846 415.611 148.807C413.493 147.769 411.616 146.298 410.101 144.491C408.586 142.683 407.466 140.578 406.814 138.311C406.162 136.044 405.992 133.666 406.315 131.329C406.315 124.168 408.342 110.925 419.829 110.925C428.209 110.925 430.909 119.305 430.909 125.654H418.892V138.071L418.912 137.987ZM504.046 116.096L512.694 102.582C506.126 98.6726 498.588 96.6995 490.948 96.8899C482.787 96.7359 474.861 99.6259 468.715 104.997C462.569 110.368 458.643 117.834 457.702 125.942H476.62C477.312 122.365 479.228 119.14 482.039 116.822C484.85 114.504 488.381 113.238 492.025 113.24C496.238 113.309 500.367 114.424 504.042 116.485M491.625 166.486C499.336 166.502 506.905 164.404 513.507 160.418L505.127 146.891C501.398 148.605 497.339 149.481 493.235 149.458C489.538 149.665 485.885 148.579 482.902 146.386C479.918 144.194 477.791 141.032 476.884 137.442H457.562C458.318 145.729 462.323 153.379 468.703 158.722C475.083 164.064 483.318 166.664 491.609 165.953M524.177 165.152H542.691V97.5668H524.194L524.177 165.152ZM567.69 165.152H586.067V117.294C586.092 114.318 585.478 111.37 584.268 108.651C583.058 105.931 581.278 103.503 579.05 101.529C576.822 99.5555 574.197 98.0823 571.351 97.2087C568.506 96.3352 565.506 96.0817 562.554 96.4653C559.852 96.4652 557.165 96.8702 554.583 97.667V113.341C556.154 113.14 557.744 113.14 559.314 113.341C564.717 113.341 567.694 115.099 567.694 121.043V165.104L567.69 165.152ZM626.338 165.152V148.645C623.226 147.043 620.677 144.528 619.035 141.437C617.393 138.345 616.735 134.825 617.15 131.349C616.791 127.88 617.474 124.382 619.11 121.302C620.747 118.222 623.263 115.699 626.338 114.054V96.7537C618.076 97.8658 610.542 102.066 605.252 108.51C599.962 114.953 597.309 123.161 597.827 131.482C597.287 139.75 599.945 147.909 605.252 154.272C610.559 160.635 618.108 164.715 626.338 165.669M666.878 131.345C667.57 123.065 665.03 114.838 659.791 108.388C654.551 101.939 647.018 97.7682 638.772 96.7497V114.182C641.811 115.814 644.289 118.326 645.88 121.387C647.471 124.449 648.103 127.919 647.692 131.345C648.2 134.847 647.567 138.42 645.888 141.534C644.208 144.649 641.572 147.141 638.367 148.641V165.669C646.509 164.528 653.922 160.363 659.131 154.002C664.339 147.641 666.961 139.552 666.474 131.345M746.344 84.5929L754.992 69.8646C746.787 65.1307 737.437 62.7458 727.967 62.9711C715.209 62.2992 702.694 66.6448 693.098 75.079C683.502 83.5132 677.587 95.3667 676.616 108.105H696.888C697.652 100.733 701.107 93.9009 706.591 88.9152C712.076 83.9295 719.205 81.1401 726.617 81.0801C733.456 80.6093 740.29 82.0605 746.348 85.2699M727.979 166.081C738.097 166.681 748.152 164.131 756.762 158.783L748.791 144.596C742.257 147.544 735.126 148.932 727.963 148.649C720.142 148.75 712.57 145.899 706.759 140.664C700.948 135.429 697.324 128.195 696.611 120.406H676.339C676.587 126.862 678.148 133.2 680.926 139.033C683.704 144.866 687.641 150.071 692.497 154.333C697.353 158.594 703.026 161.821 709.171 163.818C715.315 165.814 721.802 166.538 728.235 165.945M761.881 146.214C761.881 161.215 772.961 165.945 783.772 165.945H787.825V151.605H786.475C785.608 151.661 784.738 151.537 783.92 151.243C783.102 150.949 782.353 150.49 781.719 149.894C781.086 149.299 780.582 148.579 780.237 147.781C779.893 146.983 779.716 146.122 779.718 145.253C779.734 143.265 780.467 141.35 781.783 139.86C783.099 138.37 784.909 137.406 786.88 137.145H787.825V124.728H786.223C780.411 125.81 761.897 129.727 761.897 145.958M812.031 167.187L824.732 155.571L818.371 149.202V116.889C818.156 113.887 817.332 110.961 815.948 108.288C814.564 105.615 812.651 103.252 810.324 101.342C807.997 99.4331 805.306 98.0179 802.415 97.1828C799.523 96.3478 796.492 96.1104 793.505 96.4853C783.291 96.5215 773.284 99.3738 764.585 104.729L771.206 117.298C777.565 114.025 784.595 112.267 791.747 112.163C795.532 112.163 799.718 114.867 799.718 118.243V155.947L812.031 167.187ZM835.139 164.888H853.652V97.2945H835.139V164.888ZM874.056 164.888H892.57V118.243C892.816 115.461 892.476 112.659 891.573 110.016C890.67 107.374 889.223 104.949 887.326 102.9C885.429 100.85 883.124 99.2204 880.559 98.1156C877.994 97.0108 875.227 96.4555 872.434 96.4853C870.151 96.5137 867.88 96.8313 865.677 97.4306V113.104H866.878C870.796 113.104 874.04 114.454 874.04 118.78V164.844L874.056 164.888ZM912.974 164.888H931.351V118.243C931.619 115.457 931.294 112.646 930.399 109.993C929.504 107.341 928.059 104.908 926.157 102.854C924.256 100.799 921.942 99.1701 919.367 98.0726C916.792 96.975 914.014 96.4341 911.216 96.4853C908.939 96.4764 906.67 96.7454 904.458 97.2864V113.096H906.06C911.196 113.096 912.954 115.664 912.954 119.177L912.974 164.888ZM947.578 199.996H966.091V96.4853H947.578V199.996ZM1013.52 130.941C1013.52 111.346 1003.11 96.4933 983.523 96.4933C981.47 96.4938 979.426 96.7631 977.443 97.2945V113.104C978.61 112.975 979.788 112.975 980.956 113.104C991.226 113.104 995.143 122.718 995.143 131.482C995.143 140.246 991.206 150.003 981.625 150.003H977.839V166.085C979.638 166.219 981.444 166.219 983.243 166.085C987.587 165.907 991.849 164.838 995.763 162.946C999.677 161.053 1003.16 158.377 1006 155.083C1008.84 151.789 1010.97 147.947 1012.26 143.796C1013.55 139.644 1013.98 135.272 1013.51 130.949M1049.73 166.085C1052.35 166.042 1054.95 165.587 1057.43 164.736V148.645C1055.93 149.069 1054.39 149.296 1052.83 149.322C1047.43 149.322 1044.73 147.432 1044.73 142.297V97.5668H1027.02V145.405C1027.02 158.92 1037.56 166.081 1050.66 166.081M1070.52 165.28H1089.03V97.699H1070.11L1070.52 165.28ZM1109.71 145.008L1099.7 157.305C1102.97 160.295 1106.81 162.61 1110.98 164.117C1115.16 165.625 1119.59 166.295 1124.02 166.089C1134.84 166.089 1149.56 159.604 1149.56 145.549C1149.3 141.414 1147.9 137.432 1145.51 134.045C1143.13 130.658 1139.85 127.997 1136.05 126.359L1127.13 139.873C1128.19 140.442 1129.12 141.251 1129.82 142.235C1130.52 143.22 1130.99 144.354 1131.18 145.549C1131.18 148.117 1128.88 150.548 1124.02 150.548C1118.6 150.643 1113.35 148.605 1109.42 144.872M1139.96 116.225L1148.61 103.807C1142.21 98.7273 1134.2 96.1347 1126.04 96.5094C1120.39 96.0535 1114.79 97.8171 1110.43 101.425C1106.06 105.033 1103.28 110.202 1102.66 115.832C1102.62 120.01 1103.91 124.093 1106.33 127.493C1108.76 130.893 1112.21 133.434 1116.17 134.75L1125.09 121.235C1121.31 119.345 1119.56 118.127 1119.56 115.56C1119.56 112.992 1121.58 112.047 1126.18 112.047C1131.05 112.027 1135.79 113.591 1139.69 116.505" fill="white"/>
<path d="M0 165.404H60.6757V104.729H0V165.404ZM0 60.6757H60.6757V0H0V60.6757ZM91.6224 0V165.404H256.754V64.0644H211.352V119.741H136.889V45.663H192.566V0H91.6224Z" fill="white"/>
</g>
<defs>
<clipPath id="clip0_317_1654">
<rect width="1149.59" height="200" fill="white"/>
</clipPath>
</defs>
</svg>
