<svg width="448" height="80" viewBox="0 0 448 80" fill="none" xmlns="http://www.w3.org/2000/svg">
<g clip-path="url(#clip0_397_10299)">
<path d="M84.9619 1.99902C92.0603 -2.11682 101.137 0.326106 105.235 7.45508L134.009 57.5078C138.107 64.6368 135.675 73.7522 128.577 77.8682C123.458 80.8366 117.28 80.5432 112.651 77.416C102.972 70.876 98.4366 54.298 88.1387 54.2979C85.5642 54.2979 84.203 57.6233 83.1914 62.4902C82.6221 65.2292 81.9915 68.263 80.6934 71.0566C79.7646 73.1973 78.3305 75.1337 76.4443 76.667C75.8583 77.1449 75.2169 77.5917 74.5127 78C67.4143 82.1159 58.3376 79.6729 54.2393 72.5439C54.2393 72.5439 46.6439 60.0763 37.8604 60.0762C34.3632 60.0762 32.5475 63.5878 30.4414 67.6631C27.5313 73.294 24.0657 80 14.8408 80C6.64443 79.9998 0 73.3265 0 65.0947C4.56886e-05 56.863 6.64445 50.1897 14.8408 50.1895C17.1724 50.1895 19.7596 50.8917 22.3545 51.5957C26.8033 52.8027 31.2762 54.0161 34.5283 51.7109C36.7717 50.1205 38.2108 47.1715 39.7715 43.9727C40.9655 41.5253 42.231 38.9312 43.9834 36.6865C45.1546 35.1071 46.6588 33.7357 48.4648 32.6885C54.6376 29.1094 59.806 30.7733 64.627 32.3252C67.964 33.3994 71.1347 34.4201 74.3574 33.6113C77.6843 32.7764 77.4996 28.5134 77.2705 23.2314C76.957 16.0048 76.5606 6.87043 84.9619 1.99902ZM248.703 55.9648L262.526 24H269.621L250.225 68C249.067 70.8176 247.759 73.0315 246.3 74.6416C244.891 76.2516 243.332 77.384 241.621 78.0381C239.91 78.7425 238.023 79.0947 235.96 79.0947C234.048 79.0947 232.186 78.7673 230.375 78.1133C228.564 77.5095 227.004 76.6039 225.696 75.3965L228.79 69.9629C229.796 70.9189 230.904 71.6482 232.111 72.1514C233.319 72.6544 234.602 72.9062 235.96 72.9062C237.721 72.9062 239.181 72.4535 240.338 71.5479C241.495 70.6422 242.577 69.0313 243.583 66.7168L244.856 63.8975L227.205 24H234.753L248.703 55.9648ZM365.638 23.623C369.614 23.623 373.163 24.5036 376.283 26.2646C379.454 27.9752 381.92 30.3647 383.682 33.4336C385.494 36.4524 386.4 39.9749 386.4 44C386.4 47.9749 385.494 51.4972 383.682 54.5664C381.92 57.6354 379.454 60.0506 376.283 61.8115C373.163 63.5725 369.614 64.4531 365.638 64.4531C361.611 64.4531 358.038 63.5725 354.917 61.8115C351.796 60.0505 349.33 57.6356 347.518 54.5664C345.706 51.4469 344.8 47.9245 344.8 44C344.8 40.0252 345.706 36.5028 347.518 33.4336C349.33 30.3645 351.796 27.9753 354.917 26.2646C358.038 24.5036 361.611 23.6231 365.638 23.623ZM432 64H424.802V57.9736C423.481 59.7185 421.89 61.1237 420.027 62.1885C417.3 63.6978 414.193 64.4531 410.707 64.4531C406.818 64.4531 403.332 63.5972 400.251 61.8867C397.22 60.176 394.82 57.786 393.052 54.7168C391.284 51.6477 390.4 48.0753 390.4 44C390.4 39.9246 391.284 36.3772 393.052 33.3584C394.82 30.2892 397.22 27.8992 400.251 26.1885C403.332 24.4779 406.818 23.6221 410.707 23.6221C414.092 23.6221 417.148 24.3773 419.876 25.8867C421.792 26.9468 423.432 28.38 424.8 30.1846V12H432V64ZM210.038 23.623C213.258 23.6231 216.101 24.2519 218.566 25.5098C221.032 26.7676 222.943 28.6793 224.302 31.2451C225.711 33.8112 226.396 37.0569 226.396 40.9814V64H219.196V41.8115C219.196 37.9373 218.264 35.0189 216.453 33.0566C214.642 31.0944 212.101 30.1133 208.83 30.1133C206.415 30.1133 204.302 30.6169 202.491 31.623C200.68 32.6293 199.271 34.1131 198.265 36.0752C197.309 38.0375 196.796 40.4782 196.796 43.3965V64H189.596V41.8115C189.596 37.9373 188.679 35.0189 186.868 33.0566C185.107 31.0944 182.566 30.1133 179.245 30.1133C176.88 30.1133 174.793 30.6168 172.981 31.623C171.17 32.6293 169.761 34.1131 168.755 36.0752C167.749 38.0375 167.196 40.4782 167.196 43.3965V64H160V24H166.943V29.9844C168.134 28.2789 169.694 26.8876 171.623 25.8115C174.239 24.3525 177.283 23.623 180.755 23.623C184.579 23.6231 187.874 24.5784 190.642 26.4902C192.323 27.6213 193.65 29.1153 194.626 30.9707C195.835 29.1817 197.449 27.6622 199.472 26.415C202.491 24.5534 206.013 23.623 210.038 23.623ZM287.638 24H299.2V29.9619H287.638V51.6221C287.638 53.7856 288.166 55.4463 289.223 56.6035C290.33 57.7607 291.987 58.4004 294 58.4004H299.204V64C299.204 64 294.861 64 293.2 64C288.8 64 285.927 63.3706 283.713 61.207C281.499 59.0435 280.393 55.9488 280.393 51.9238V29.9619H273.6V24H280.393V16H287.638V24ZM310.376 29.6387C311.566 28.0896 313.086 26.8142 314.936 25.8115C317.627 24.3524 320.767 23.6221 324.354 23.6221C327.594 23.6221 330.434 24.2511 332.876 25.5088C335.368 26.7667 337.312 28.6791 338.707 31.2451C340.102 33.8112 340.8 37.0569 340.8 40.9814V64H333.624V41.8115C333.624 37.9373 332.677 35.0189 330.783 33.0566C328.939 31.0944 326.323 30.1133 322.935 30.1133C320.393 30.1133 318.175 30.6158 316.281 31.6221C314.388 32.6284 312.918 34.1129 311.871 36.0752C310.874 38.0375 310.376 40.4782 310.376 43.3965V64H303.2V12H310.376V29.6387ZM365.638 29.9619C363.071 29.9619 360.781 30.5411 358.768 31.6982C356.754 32.8554 355.144 34.4905 353.936 36.6035C352.728 38.6664 352.123 41.1321 352.123 44C352.123 46.8176 352.728 49.3082 353.936 51.4717C355.144 53.5849 356.754 55.2207 358.768 56.3779C360.781 57.535 363.071 58.1133 365.638 58.1133C368.204 58.1133 370.495 57.535 372.508 56.3779C374.571 55.2207 376.182 53.5849 377.34 51.4717C378.497 49.3082 379.076 46.8176 379.076 44C379.076 41.1321 378.497 38.6664 377.34 36.6035C376.182 34.4905 374.571 32.8554 372.508 31.6982C370.495 30.5411 368.205 29.9619 365.638 29.9619ZM411.313 29.9619C408.737 29.9619 406.439 30.541 404.418 31.6982C402.397 32.8555 400.781 34.4904 399.568 36.6035C398.356 38.6664 397.75 41.1321 397.75 44C397.75 46.8175 398.356 49.3082 399.568 51.4717C400.781 53.5848 402.397 55.2197 404.418 56.377C406.439 57.5342 408.737 58.1133 411.313 58.1133C413.839 58.1133 416.113 57.5342 418.134 56.377C420.205 55.2198 421.821 53.5846 422.982 51.4717C424.195 49.3082 424.802 46.8175 424.802 44C424.802 41.1321 424.195 38.6664 422.982 36.6035C421.821 34.4906 420.205 32.8554 418.134 31.6982C416.113 30.541 413.839 29.9619 411.313 29.9619ZM440.771 12.7998H438.793V17.5996H437.978V12.7998H436V12H440.771V12.7998ZM444.943 16.0537L447.316 12H447.992L448 17.5996H447.209L447.201 13.5654L445.116 17.0674H444.737L442.652 13.5898V17.5996H441.861V12H442.537L444.943 16.0537Z" fill="white"/>
</g>
<defs>
<clipPath id="clip0_397_10299">
<rect width="448" height="80" fill="white"/>
</clipPath>
</defs>
</svg>
