<svg width="265" height="80" viewBox="0 0 265 80" fill="none" xmlns="http://www.w3.org/2000/svg">
<path d="M8.38769 78.2774H0L27.4308 1.7291H35.8169L8.38769 78.2774Z" fill="#6CA5DE"/>
<path d="M67.2147 80C57.2516 80 49.4743 77.7393 43.8831 73.2195C38.2918 68.6982 35.4568 61.9686 35.3766 53.0307H44.7386C44.9513 65.5792 52.4434 71.8526 67.2147 71.8526C73.455 71.8526 78.2432 70.6337 81.5761 68.1958C84.9105 65.7579 86.5785 62.1951 86.5785 57.5074C86.7218 54.1418 85.1633 50.9303 82.4316 48.9578C79.6753 46.9145 74.8563 45.1423 67.9747 43.6383L61.1918 42.1296C53.4454 40.3328 47.6414 37.7362 43.7751 34.3398C39.9104 30.9434 37.9896 26.1647 38.0143 20.0053C37.8447 14.2712 40.5116 8.82211 45.1425 5.43496C49.8304 1.81666 56.1663 0.0075558 64.1501 0.0075558C68.8827 -0.078741 73.6 0.574656 78.1322 1.94308C81.6346 2.95244 84.8319 4.81702 87.4341 7.37048C89.5583 9.54023 91.2232 12.1184 92.3285 14.9461C93.3984 17.8417 93.9657 20.8975 94.0027 23.9842H84.7486C84.3216 18.529 82.5472 14.5316 79.4271 11.9904C76.3069 9.44777 71.2136 8.17801 64.1501 8.17801C58.7639 8.17801 54.6216 9.2182 51.7235 11.3016C48.8762 13.2649 47.2313 16.5488 47.3639 20.0053C47.1805 23.3277 48.554 26.5453 51.0822 28.7104C53.5133 30.7923 58.2644 32.6215 65.3371 34.1965L72.12 35.7051C80.5787 37.5728 86.6725 40.2419 90.4031 43.7091C94.1337 47.1764 95.9944 51.7841 95.9867 57.5321C95.9867 64.482 93.4447 69.965 88.3605 73.9793C83.2764 77.9936 76.2268 80 67.2147 80Z" fill="#6CA5DE"/>
<path d="M122.36 72.2564C126.744 72.3258 131.012 70.8402 134.406 68.0648C137.835 65.3419 139.553 61.4354 139.561 56.3439V49.7885C137.381 51.2155 134.859 52.0353 132.256 52.1647L124.19 53.1263C119.521 53.7072 116.206 54.7767 114.235 56.3562C112.226 58.0128 111.127 60.5262 111.276 63.1243C111.144 65.6747 112.175 68.1465 114.08 69.8463C115.969 71.4489 118.796 72.2564 122.36 72.2564ZM151.003 71.2594H154.114V78.254C152.541 78.479 150.952 78.5854 149.362 78.5746C143.549 78.5746 140.432 75.9225 140.013 70.6183C136.164 76.5882 130.15 79.5717 121.969 79.5717C115.863 79.5717 111.087 78.1477 107.606 75.3215C104.125 72.4953 102.391 68.4933 102.391 63.3386C102.391 53.2927 109.237 47.5571 122.931 46.1317L130.89 45.2764C136.695 44.6276 139.598 42.0819 139.598 37.6407C139.598 34.5525 138.647 32.3288 136.746 30.9665C134.845 29.6135 131.637 28.9247 127.124 28.9247C122.373 28.9247 118.808 29.7322 116.741 31.2994C114.674 32.8666 113.427 35.7637 113.177 39.8489H104.541C105.253 27.5933 112.776 21.4662 127.111 21.4662C141.019 21.4662 147.972 26.8412 147.972 37.5929V68.5996C147.984 70.3933 148.994 71.2594 151.003 71.2594Z" fill="#6CA5DE"/>
<path d="M169.713 78.2774H161.111V1.7291H169.713V78.2774Z" fill="#6CA5DE"/>
<path d="M219.19 54.1942V22.7961H227.79V78.2771H219.617V69.9649C215.388 76.3694 209.579 79.5717 202.189 79.5717C196.027 79.5717 191.226 77.8857 187.78 74.514C184.335 71.1407 182.613 66.3913 182.613 60.2627V22.7961H191.261V59.4675C191.261 67.7089 195.489 71.8296 203.948 71.8296C207.981 71.8434 211.844 70.21 214.639 67.3052C217.673 64.3048 219.19 59.9345 219.19 54.1942Z" fill="#6CA5DE"/>
<path d="M265 22.7961V30.3255H253.608V66.3436C253.608 69.5027 255.723 71.0931 259.951 71.0931H265V78.3019C262.624 78.5161 260.58 78.6224 258.871 78.6224C249.627 78.6224 245.006 74.7869 245.006 67.1157V30.3008H235.86V22.7961H245.006V7.13326H253.608V22.7961H265Z" fill="#6CA5DE"/>
</svg>
