<svg width="322" height="80" viewBox="0 0 322 80" fill="none" xmlns="http://www.w3.org/2000/svg">
<path fill-rule="evenodd" clip-rule="evenodd" d="M33.0652 18.8658C38.2749 18.8658 42.4981 14.6426 42.4981 9.43291C42.4981 4.22322 38.2749 0 33.0652 0C27.8558 0 23.6325 4.22322 23.6325 9.43291C23.6325 14.6426 27.8558 18.8658 33.0652 18.8658ZM33.862 55.3959C29.1666 55.3959 24.7521 53.5674 21.4318 50.2473L1.9981 30.8134C-0.666032 28.1495 -0.666032 23.8307 1.9981 21.1666C4.66179 18.5022 8.98121 18.5022 11.6449 21.1666L31.0786 40.6005C32.6138 42.1349 35.1101 42.1349 36.6453 40.6005L48.4723 28.7733C51.7921 25.4531 56.2069 23.6243 60.9024 23.6243C65.5982 23.6243 70.0128 25.4529 73.333 28.7733L85.1596 40.6005C86.6944 42.1344 89.1913 42.1351 90.7267 40.6005L102.554 28.7733C105.874 25.4531 110.288 23.6243 114.984 23.6243C119.68 23.6243 124.094 25.4531 127.414 28.7733L139.241 40.6005C140.776 42.1351 143.274 42.1349 144.808 40.6001L164.242 21.1666C166.905 18.5022 171.225 18.5022 173.889 21.1666C176.553 23.8307 176.553 28.1495 173.889 30.8134L154.455 50.2473C147.601 57.1011 136.448 57.1009 129.594 50.2475L117.767 38.4202C117.024 37.6767 116.035 37.2673 114.984 37.2673C113.933 37.2673 112.944 37.6767 112.201 38.4202L100.374 50.2473C93.5195 57.1011 82.3676 57.1009 75.513 50.2475L63.6862 38.4202C62.9425 37.6767 61.9539 37.2673 60.9024 37.2673C59.851 37.2673 58.8628 37.6767 58.1195 38.4202L46.2921 50.2473C42.9719 53.5674 38.5573 55.3959 33.862 55.3959ZM152.169 70.5671C152.169 75.7768 147.946 80 142.736 80C137.527 80 133.303 75.7768 133.303 70.5671C133.303 65.3574 137.527 61.1342 142.736 61.1342C147.946 61.1342 152.169 65.3574 152.169 70.5671ZM78.5101 61.1342C83.7198 61.1342 87.943 65.3574 87.943 70.5671C87.943 75.7765 83.7198 79.9998 78.5101 79.9998C73.3004 79.9998 69.0772 75.7765 69.0772 70.5671C69.0772 65.3574 73.3004 61.1342 78.5101 61.1342ZM106.809 70.5671C106.809 65.3574 102.586 61.1342 97.3761 61.1342C92.1664 61.1342 87.9432 65.3574 87.9432 70.5671C87.9432 75.7765 92.1664 79.9998 97.3761 79.9998C102.586 79.9998 106.809 75.7765 106.809 70.5671Z" fill="url(#paint0_linear_66_31120)"/>
<path d="M209.287 18.6631H213.995V36.7881H214.23C215.015 34.8658 216.153 33.4534 217.643 32.5511C219.173 31.6095 220.998 31.1388 223.116 31.1388C224.999 31.1388 226.706 31.5115 228.236 32.2569C229.766 33.0023 231.061 34.0615 232.12 35.4346C233.218 36.8077 234.042 38.4751 234.592 40.4367C235.18 42.3982 235.474 44.5952 235.474 47.0276C235.474 49.4599 235.18 51.6569 234.592 53.6185C234.042 55.5801 233.218 57.2474 232.12 58.6205C231.061 59.9936 229.766 61.0529 228.236 61.7983C226.706 62.5437 224.999 62.9164 223.116 62.9164C218.997 62.9164 216.035 61.0333 214.23 57.267H213.995V62.2102H209.287V18.6631ZM221.822 58.6794C224.489 58.6794 226.588 57.8555 228.118 56.2078C229.648 54.5208 230.413 52.3238 230.413 49.6169V44.4383C230.413 41.7313 229.648 39.5539 228.118 37.9062C226.588 36.2192 224.489 35.3758 221.822 35.3758C220.762 35.3758 219.742 35.5327 218.762 35.8465C217.82 36.1212 216.996 36.5135 216.29 37.0235C215.584 37.5335 215.015 38.1612 214.583 38.9066C214.191 39.6128 213.995 40.3778 213.995 41.2017V52.5004C213.995 53.4812 214.191 54.3639 214.583 55.1485C215.015 55.8939 215.584 56.5412 216.29 57.0905C216.996 57.6005 217.82 57.9928 218.762 58.2674C219.742 58.5421 220.762 58.6794 221.822 58.6794Z" fill="#FEFEFE"/>
<path d="M263.431 62.2102C261.666 62.2102 260.391 61.7394 259.606 60.7979C258.861 59.8563 258.39 58.6794 258.194 57.267H257.9C257.233 59.1502 256.134 60.5625 254.604 61.5041C253.074 62.4456 251.25 62.9164 249.131 62.9164C245.914 62.9164 243.404 62.0925 241.599 60.4448C239.834 58.7971 238.951 56.5609 238.951 53.7362C238.951 50.8723 239.99 48.6753 242.07 47.1453C244.188 45.6152 247.464 44.8502 251.897 44.8502H257.9V41.849C257.9 39.6912 257.311 38.0435 256.134 36.9058C254.957 35.7681 253.153 35.1992 250.72 35.1992C248.876 35.1992 247.327 35.6112 246.071 36.435C244.855 37.2589 243.835 38.3574 243.011 39.7305L240.187 37.0823C241.01 35.4346 242.325 34.0419 244.129 32.9042C245.934 31.7272 248.209 31.1388 250.956 31.1388C254.643 31.1388 257.507 32.0411 259.547 33.8457C261.587 35.6504 262.608 38.1612 262.608 41.3782V58.0909H266.08V62.2102H263.431ZM249.896 58.9148C251.073 58.9148 252.152 58.7774 253.133 58.5028C254.114 58.2282 254.957 57.8359 255.664 57.3259C256.37 56.8159 256.919 56.2274 257.311 55.5605C257.704 54.8935 257.9 54.1677 257.9 53.3831V48.3811H251.662C248.955 48.3811 246.974 48.7734 245.718 49.558C244.502 50.3426 243.894 51.4804 243.894 52.9712V54.207C243.894 55.6978 244.424 56.8551 245.483 57.679C246.581 58.5028 248.053 58.9148 249.896 58.9148Z" fill="#FEFEFE"/>
<path d="M289.165 31.8449H293.814L280.22 69.2719C279.867 70.1742 279.514 70.9196 279.161 71.5081C278.808 72.1358 278.376 72.6262 277.866 72.9793C277.356 73.3324 276.709 73.5874 275.924 73.7443C275.179 73.9013 274.257 73.9797 273.159 73.9797H270.746V69.8604H275.513L277.808 63.3872L266.45 31.8449H271.158L278.455 52.5004L279.867 57.4436H280.162L281.809 52.5004L289.165 31.8449Z" fill="#FEFEFE"/>
<path d="M297.758 62.2102V31.8449H302.466V36.7881H302.701C303.447 35.0619 304.487 33.6888 305.82 32.6688C307.193 31.6488 309.018 31.1388 311.293 31.1388C314.432 31.1388 316.903 32.1588 318.708 34.1988C320.552 36.1996 321.474 39.0439 321.474 42.7317V62.2102H316.766V43.5556C316.766 38.1024 314.471 35.3758 309.881 35.3758C308.939 35.3758 308.017 35.4935 307.115 35.7289C306.252 35.9642 305.467 36.3173 304.761 36.7881C304.055 37.2589 303.486 37.867 303.055 38.6124C302.662 39.3186 302.466 40.162 302.466 41.1428V62.2102H297.758Z" fill="#FEFEFE"/>
<defs>
<linearGradient id="paint0_linear_66_31120" x1="24.2809" y1="40" x2="150.319" y2="40" gradientUnits="userSpaceOnUse">
<stop stop-color="#FEB449"/>
<stop offset="0.392517" stop-color="#FF803D"/>
<stop offset="1" stop-color="#863E8D"/>
</linearGradient>
</defs>
</svg>
