<svg width="320" height="80" viewBox="0 0 320 80" fill="none" xmlns="http://www.w3.org/2000/svg">
<path d="M163.053 79.5233H165.563V72.9741H171.125V70.7139H165.563V67.2436H171.125V65.0012H163.053V79.5233Z" fill="#F9BB00"/>
<path d="M174.338 79.5233H176.848V65.0012H174.338V75.2877V79.5233Z" fill="#F9BB00"/>
<path d="M191.913 75.5368L182.631 65.0012H180.645V79.5233H183.01V69.0766L192.22 79.5233H194.315V65.0012H191.913V75.5368Z" fill="#F9BB00"/>
<path d="M202.567 64.9124L196.229 79.5234H198.829L200.635 75.359H206.432L208.238 79.5234H210.838L204.229 64.9124H202.567ZM205.366 73.0988H201.628L203.434 68.8098L205.366 73.0988Z" fill="#F9BB00"/>
<path d="M224.165 75.5368L214.883 65.0012H212.896V79.5233H215.28V69.0766L224.472 79.5233H226.567V65.0012H224.165V75.5368Z" fill="#F9BB00"/>
<path d="M237.561 77.3695C236.845 77.3995 236.129 77.2891 235.457 77.0447C234.784 76.8003 234.167 76.4268 233.642 75.9457C233.157 75.4681 232.772 74.9007 232.509 74.2763C232.246 73.6518 232.111 72.9824 232.111 72.3063C232.111 71.6303 232.246 70.9609 232.509 70.3364C232.772 69.7119 233.157 69.1446 233.642 68.6669C234.164 68.1795 234.78 67.7994 235.453 67.5489C236.125 67.2983 236.842 67.1823 237.561 67.2076C239.244 67.248 240.887 67.7203 242.328 68.5779L242.672 68.7737V66.0508H242.545C240.945 65.3267 239.213 64.9272 237.453 64.8762C236.416 64.8518 235.384 65.0295 234.417 65.399C233.45 65.7686 232.567 66.3227 231.818 67.0296C231.077 67.7112 230.49 68.5388 230.095 69.4586C229.7 70.3784 229.506 71.3699 229.525 72.3686C229.515 73.6653 229.853 74.9415 230.507 76.067C231.161 77.1925 232.105 78.1271 233.245 78.7754C234.526 79.4512 235.963 79.7884 237.416 79.7542C239.259 79.7892 241.08 79.3604 242.708 78.5085H242.888V75.6076L242.527 75.839C241.057 76.8126 239.332 77.3444 237.561 77.3695Z" fill="#F9BB00"/>
<path d="M248.469 77.2453V73.3478H254.302V71.0877H248.469V67.2436H254.519V65.0012H245.959V79.5055H254.699V77.2453H248.469Z" fill="#F9BB00"/>
<path d="M125.291 36.26H127.855V31.8464H130.618C130.939 31.8556 131.245 31.9866 131.47 32.212C131.695 32.4375 131.824 32.7401 131.828 33.0566V36.26H135.44V39.1253H131.828V46.5642C131.828 48.7888 132.298 49.3761 133.995 49.3761C134.37 49.3809 134.743 49.3207 135.097 49.1981V52.1168C134.331 52.2798 133.551 52.3633 132.767 52.3659C132.005 52.4513 131.233 52.3606 130.512 52.1012C129.791 51.8417 129.141 51.4206 128.614 50.871C127.982 50.088 127.855 49.4295 127.855 46.9914V39.1253H125.291V36.26Z" fill="white"/>
<path d="M25.4453 27.5216H28.1903C28.3492 27.5193 28.507 27.5478 28.6547 27.6055C28.8024 27.6633 28.9371 27.7492 29.0511 27.8582C29.1652 27.9673 29.2563 28.0975 29.3193 28.2412C29.3823 28.385 29.4159 28.5396 29.4183 28.6962V36.5089C30.5702 36.0701 31.795 35.8467 33.03 35.8504C37.635 35.8504 40.6328 38.9649 40.6328 43.7699C40.6328 49.3403 37.021 52.4013 30.3573 52.4013C28.7387 52.3842 27.1249 52.2234 25.5356 51.9208L25.4453 27.5216ZM29.4183 49.1445C29.9268 49.2155 30.4397 49.2512 30.9533 49.2513C34.565 49.2513 36.4973 47.4716 36.4973 43.9123C36.4973 40.7445 34.8179 38.9471 31.8923 38.9471C31.044 38.9301 30.2013 39.0877 29.4183 39.4098V49.1445Z" fill="white"/>
<path d="M53.9946 27.522H56.7395C56.896 27.5173 57.052 27.543 57.1984 27.5977C57.3449 27.6524 57.479 27.735 57.593 27.8407C57.7071 27.9465 57.7988 28.0734 57.8631 28.2142C57.9274 28.3549 57.9628 28.5068 57.9675 28.661V51.7966C55.925 52.2266 53.8438 52.4532 51.7553 52.4729C45.85 52.4729 42.7258 49.7144 42.7258 44.4288C42.6497 43.386 42.7834 42.3385 43.1193 41.3467C43.4551 40.355 43.9865 39.4383 44.6829 38.6495C45.3793 37.8607 46.227 37.2152 47.1773 36.7502C48.1275 36.2852 49.1617 36.0098 50.2203 35.9398C50.6047 35.9042 50.9916 35.9042 51.376 35.9398C52.254 35.9214 53.1301 36.0293 53.9765 36.2602L53.9946 27.522ZM53.9946 39.3746C53.2782 39.1768 52.5345 39.0927 51.7914 39.1254C51.1745 39.0819 50.5549 39.1589 49.9683 39.352C49.3817 39.5451 48.8395 39.8505 48.373 40.2507C47.9065 40.6509 47.5249 41.138 47.2499 41.684C46.975 42.2299 46.8123 42.8241 46.771 43.4322C46.744 43.7282 46.744 44.026 46.771 44.3221C46.6897 44.9007 46.7253 45.4896 46.8758 46.0546C47.0263 46.6197 47.2886 47.1499 47.6478 47.6146C48.007 48.0794 48.4559 48.4696 48.9686 48.7628C49.4814 49.056 50.0479 49.2463 50.6356 49.3229C50.9657 49.3585 51.2988 49.3585 51.6288 49.3229C52.4242 49.3266 53.2155 49.2126 53.9765 48.9848L53.9946 39.3746Z" fill="white"/>
<path d="M65.014 36.2773V45.7274C65.014 48.2011 65.8447 49.0197 68.391 49.0197C69.2748 49.0142 70.1566 48.9368 71.0276 48.7884V36.3307H74.9463V51.5824C72.6602 52.0615 70.3308 52.312 67.9937 52.3299C66.0664 52.4947 64.1433 51.9704 62.576 50.8528C61.4383 49.785 61.041 48.4858 61.041 45.8163V36.2773H65.014Z" fill="white"/>
<path d="M78.1602 27.522H80.887C81.046 27.5173 81.2043 27.5435 81.3529 27.599C81.5015 27.6546 81.6376 27.7385 81.7533 27.8459C81.8691 27.9534 81.9622 28.0822 82.0273 28.2251C82.0925 28.368 82.1284 28.5222 82.1331 28.6788V52.2238H78.1602V27.522Z" fill="white"/>
<path d="M250.404 27.5216H253.149C253.308 27.5193 253.466 27.5478 253.614 27.6055C253.761 27.6633 253.896 27.7492 254.01 27.8582C254.124 27.9673 254.215 28.0975 254.278 28.2412C254.341 28.385 254.375 28.5396 254.377 28.6962V52.2233H250.404V27.5216Z" fill="white"/>
<path d="M92.0996 27.5216H95.0974C95.2539 27.5193 95.4094 27.5473 95.5549 27.6042C95.7004 27.661 95.8331 27.7456 95.9455 27.853C96.0579 27.9604 96.1476 28.0886 96.2097 28.2302C96.2718 28.3719 96.305 28.5241 96.3073 28.6784V48.486H106.113V52.2233H92.0996V27.5216Z" fill="white"/>
<path d="M137.827 30.583H141.764V33.5017H137.827V30.583ZM137.827 36.2779H141.764V52.2949H137.791L137.827 36.2779Z" fill="white"/>
<path d="M167.943 27.4856C168.266 27.4903 168.573 27.6198 168.8 27.8463C169.026 28.0727 169.153 28.3779 169.153 28.6958V45.0331C169.153 48.5924 168.72 54.6966 162.598 57.4907L160.539 53.9314C161.912 53.2734 163.065 52.2421 163.862 50.9594C164.693 49.411 164.927 47.5958 164.927 42.8619V27.4856H167.943Z" fill="white"/>
<path d="M189.965 36.2777C192.89 36.2777 197.947 35.1743 201.486 36.6336C203.279 36.1334 205.131 35.8701 206.994 35.8506C212.863 35.8506 213.568 38.876 213.568 41.8125V52.2235H209.595V42.0794C209.595 39.2675 207.337 38.4311 203.888 39.2141V52.2235H199.933V42.0972C199.933 39.8904 198.579 38.2887 193.974 39.2319V52.2235H190.001L189.965 36.2777Z" fill="white"/>
<path d="M14.8805 30.0665C14.7646 29.6881 14.5242 29.3586 14.1972 29.1298C13.8702 28.901 13.4753 28.786 13.0746 28.8029H9.6976C5.81495 37.4876 3.19642 43.7343 0 52.2233H4.51471C6.5373 46.4927 9.3906 39.1249 11.955 32.7893C12.9482 35.5656 14.3568 39.7122 14.8624 41.4385H11.0881L9.93237 44.7843H15.964C16.5961 46.5639 17.7699 50.1233 18.4742 52.2233H23.2237C20.0995 43.4673 16.9211 34.8537 14.8805 30.0665Z" fill="white"/>
<path d="M219.721 45.069C220.353 50.9063 227.829 49.6072 230.086 47.5606V50.8351C228.311 51.9223 226.252 52.473 224.163 52.4191C222.161 52.6074 220.165 52.0046 218.614 50.7431C217.063 49.4816 216.084 47.6647 215.892 45.6919C215.838 45.2188 215.838 44.7413 215.892 44.2682C215.892 39.214 219.016 35.886 223.784 35.886C231.007 35.886 231.007 42.7733 231.007 45.069H219.811H219.721ZM227.161 42.3818C226.998 40.1572 225.861 38.8224 223.712 38.8224C223.218 38.8034 222.726 38.8804 222.263 39.049C221.8 39.2176 221.375 39.4745 221.012 39.8051C220.65 40.1357 220.358 40.5334 220.151 40.9756C219.945 41.4177 219.83 41.8955 219.811 42.3818H227.161Z" fill="white"/>
<path d="M236.803 45.069C237.435 50.9063 244.893 49.6072 247.169 47.5606V50.8352C245.387 51.9064 243.333 52.4557 241.246 52.4191C240.254 52.5149 239.254 52.4174 238.301 52.1321C237.347 51.8467 236.461 51.3792 235.691 50.7562C234.921 50.1332 234.284 49.3669 233.815 48.501C233.345 47.6351 233.054 46.6866 232.957 45.7097C232.902 45.2307 232.902 44.7472 232.957 44.2682C232.957 39.214 236.099 35.886 240.866 35.886C248.09 35.886 248.09 42.7733 248.09 45.069H236.893H236.803ZM244.243 42.3818C244.081 40.1572 242.943 38.8224 240.794 38.8224C240.301 38.8034 239.808 38.8804 239.345 39.049C238.882 39.2176 238.457 39.4745 238.095 39.8051C237.733 40.1357 237.44 40.5334 237.234 40.9756C237.028 41.4177 236.912 41.8955 236.893 42.3818H244.243Z" fill="white"/>
<path d="M122.798 36.2599V51.7074C119.313 52.4192 107.557 54.6438 107.557 44.1082C107.557 38.9294 110.934 35.8506 116.225 35.8506C119.078 35.8506 120.776 36.2599 122.798 36.2599ZM118.825 39.2319C117.922 39.054 111.602 37.7726 111.602 44.1082C111.602 50.4438 118.031 49.1981 118.825 48.8955V39.2319Z" fill="white"/>
<path d="M186.911 36.2772V51.7247C183.426 52.4366 171.688 54.6612 171.688 44.1256C171.688 38.9467 175.065 35.8679 180.338 35.8679C183.191 35.8679 184.889 36.2772 186.911 36.2772ZM182.938 39.2315C182.053 39.0713 175.715 37.79 175.715 44.1256C175.715 50.4612 182.144 49.2154 182.938 48.9128V39.2315Z" fill="white"/>
<path d="M144.217 36.26H146.781C146.781 32.5405 147.395 30.5651 149.002 29.1414C150.389 27.9464 152.182 27.3108 154.023 27.3617C154.586 27.3621 155.149 27.4157 155.702 27.5219V30.6541C155.293 30.5686 154.875 30.5269 154.456 30.5295C153.917 30.4944 153.378 30.5858 152.882 30.7962C152.386 31.0066 151.947 31.3299 151.603 31.7397C150.953 32.5227 150.754 33.6261 150.754 36.26H154.763V39.1253H150.79V52.1702H146.781V39.1253H144.217V36.26Z" fill="white"/>
<path d="M283.379 46.8482C283.485 46.9351 283.563 47.05 283.605 47.1793C283.646 47.3085 283.65 47.4468 283.614 47.5778C283.572 47.7044 283.489 47.8142 283.379 47.8911C283.268 47.968 283.135 48.0079 283 48.005H279.009C278.65 48.0376 278.289 47.9566 277.98 47.7736C277.678 47.5207 277.468 47.1767 277.384 46.7948L276.192 43.2355C276.13 43.1036 276.116 42.9545 276.154 42.8138C276.191 42.6732 276.277 42.5499 276.397 42.4654C276.518 42.3809 276.664 42.3404 276.811 42.351C276.958 42.3617 277.097 42.4227 277.203 42.5236L283.416 46.9549" fill="white"/>
<path d="M280.237 34.0534C280.164 34.0698 280.099 34.1107 280.053 34.1691C280.007 34.2275 279.982 34.2998 279.984 34.3738C279.986 34.4288 279.999 34.4828 280.024 34.532C280.049 34.5813 280.085 34.6244 280.129 34.6585C280.129 34.6585 282.061 36.0644 282.278 36.189C282.361 36.2326 282.454 36.2555 282.549 36.2555C282.643 36.2555 282.736 36.2326 282.82 36.189L287.497 34.6941V43.1119L277.745 36.1356C277.366 35.8262 276.913 35.6192 276.428 35.5349C275.944 35.4507 275.445 35.4921 274.982 35.6551L269.564 37.4348C269.441 37.4696 269.326 37.5281 269.225 37.6069C269.125 37.6857 269.041 37.7834 268.979 37.8942C268.917 38.0049 268.878 38.1267 268.863 38.2525C268.849 38.3783 268.86 38.5056 268.896 38.6271C269.041 39.0543 272.508 49.5543 272.815 50.4619C272.987 51.353 273.498 52.1458 274.243 52.6783C274.988 53.2108 275.911 53.4429 276.824 53.3272H290.079C290.169 53.3276 290.256 53.295 290.323 53.2358C290.389 53.1766 290.431 53.0949 290.44 53.0068V50.7822C290.44 50.6878 290.402 50.5973 290.335 50.5306C290.267 50.4638 290.175 50.4263 290.079 50.4263H277.745C276.156 50.4263 275.849 50.0348 275.506 48.967C275.271 48.2373 272.454 39.6949 272.436 39.6593L274.964 38.8407C275.281 38.7601 275.615 38.762 275.931 38.8462C276.248 38.9305 276.537 39.0941 276.77 39.3212L289.249 48.0238C289.326 48.0831 289.416 48.1266 289.511 48.1515C289.606 48.1765 289.705 48.1826 289.803 48.1693C289.9 48.1561 289.994 48.1238 290.079 48.0743C290.163 48.0249 290.237 47.9593 290.296 47.8814C290.352 47.815 290.393 47.7382 290.418 47.6556C290.443 47.5731 290.45 47.4864 290.44 47.4009V30.7966L280.219 34.0534" fill="white"/>
<path d="M287.843 9.93877C287.703 9.93877 287.568 9.89589 287.454 9.81612C287.341 9.73635 287.256 9.62368 287.211 9.49386C287.166 9.36711 287.167 9.22912 287.213 9.10284C287.259 8.97657 287.347 8.86962 287.464 8.79979L290.75 6.48623C291.023 6.24006 291.374 6.09531 291.743 6.0769C292.134 6.11478 292.502 6.27723 292.791 6.53962L295.861 8.87097C295.969 8.94397 296.051 9.04826 296.097 9.16942C296.142 9.29057 296.148 9.4226 296.114 9.54725C296.073 9.67955 295.993 9.79652 295.883 9.88243C295.773 9.96833 295.64 10.019 295.5 10.0278H287.843" fill="white"/>
<path d="M297.974 18.4985C298.017 18.4385 298.04 18.3671 298.04 18.2938C298.04 18.2205 298.017 18.1491 297.974 18.0891C297.95 18.0394 297.911 17.9978 297.863 17.9693C297.815 17.9409 297.759 17.9269 297.703 17.929H295.085C294.989 17.9274 294.894 17.9493 294.809 17.9928C294.724 18.0363 294.651 18.1 294.597 18.1781L291.654 22.1112L286.615 15.2951H298.661C299.152 15.3256 299.643 15.2301 300.086 15.0181C300.529 14.806 300.909 14.4845 301.189 14.0849L304.512 9.58235C304.59 9.48349 304.647 9.37024 304.681 9.24924C304.714 9.12824 304.722 9.0019 304.706 8.87762C304.689 8.75335 304.647 8.63362 304.583 8.52544C304.518 8.41727 304.433 8.32281 304.331 8.24761L294.11 0.933192C293.444 0.33291 292.574 0 291.672 0C290.769 0 289.9 0.33291 289.234 0.933192L278.507 8.62134C278.438 8.67901 278.391 8.75707 278.371 8.84375C278.352 8.93042 278.361 9.02101 278.399 9.10185L279.735 10.8815C279.809 10.9408 279.901 10.9731 279.997 10.9731C280.092 10.9731 280.185 10.9408 280.259 10.8815L290.227 3.76286C291.527 2.85523 292.033 2.9798 292.9 3.63828C293.767 4.29675 300.9 9.38659 300.936 9.38659C300.945 9.40282 300.95 9.42124 300.95 9.43998C300.95 9.45872 300.945 9.47714 300.936 9.49337L299.365 11.629C299.155 11.8944 298.877 12.1001 298.559 12.2251C298.242 12.3502 297.897 12.3901 297.559 12.3408H282.335C282.134 12.3408 281.941 12.4196 281.799 12.5598C281.657 12.6999 281.577 12.8901 281.577 13.0883C281.578 13.2559 281.635 13.4185 281.739 13.551L291.672 27.0231C291.672 27.0231 297.866 18.6052 297.992 18.4629" fill="white"/>
<path d="M272.001 26.81C271.954 26.9384 271.868 27.0497 271.755 27.1291C271.643 27.2085 271.508 27.2524 271.369 27.255C271.234 27.2558 271.102 27.2126 270.995 27.1322C270.887 27.0517 270.809 26.9385 270.773 26.81L269.545 23.0727C269.42 22.7337 269.42 22.3618 269.545 22.0227C269.684 21.6563 269.954 21.3525 270.304 21.1685L273.446 18.9261C273.554 18.8494 273.683 18.8081 273.816 18.8081C273.949 18.8081 274.079 18.8494 274.187 18.9261C274.301 19.0026 274.388 19.1122 274.437 19.2396C274.485 19.3671 274.492 19.5063 274.457 19.638C274.457 19.8871 272.092 26.7566 272.092 26.7566" fill="white"/>
<path d="M283.378 19.9232C283.349 19.867 283.306 19.8197 283.251 19.7867C283.197 19.7536 283.135 19.7361 283.071 19.7361C283.007 19.7361 282.945 19.7536 282.89 19.7867C282.836 19.8197 282.792 19.867 282.764 19.9232C282.764 20.0122 282.024 22.1834 281.951 22.397C281.907 22.4823 281.884 22.5769 281.884 22.6728C281.884 22.7687 281.907 22.8633 281.951 22.9487L284.859 26.8639L276.732 29.48L280.452 18.197C280.632 17.7452 280.689 17.2553 280.62 16.7751C280.55 16.2948 280.356 15.8405 280.055 15.4563L276.75 10.9537C276.683 10.8496 276.595 10.7599 276.491 10.6898C276.388 10.6198 276.271 10.5709 276.148 10.546C276.025 10.5212 275.899 10.5208 275.776 10.545C275.653 10.5691 275.536 10.6174 275.432 10.6868L265.211 18.019C264.427 18.4556 263.838 19.1647 263.557 20.0075C263.276 20.8502 263.325 21.7658 263.694 22.5749C263.856 23.091 267.793 35.0326 267.793 35.0326C267.798 35.1303 267.839 35.2228 267.909 35.292C267.979 35.3612 268.073 35.4019 268.172 35.4063L270.339 34.73C270.385 34.7142 270.427 34.6895 270.462 34.6575C270.498 34.6255 270.527 34.5868 270.547 34.5437C270.567 34.5006 270.578 34.4539 270.58 34.4064C270.581 34.359 270.573 34.3117 270.556 34.2673L266.746 22.6995C266.276 21.2046 266.547 20.8131 267.468 20.1546L275.504 14.4063C275.504 14.4063 276.534 15.8122 277.075 16.5241C277.285 16.8005 277.409 17.1311 277.431 17.4755C277.454 17.8199 277.374 18.1633 277.202 18.4639L272.506 32.7012C272.45 32.89 272.472 33.093 272.566 33.2663C272.661 33.4395 272.821 33.569 273.012 33.6266C273.164 33.6796 273.33 33.6796 273.482 33.6266L289.554 28.4834C289.554 28.4834 283.36 20.0656 283.233 19.9232" fill="white"/>
<path d="M306.242 42.3997C306.357 42.3224 306.492 42.281 306.631 42.281C306.769 42.281 306.905 42.3224 307.019 42.3997C307.124 42.4785 307.202 42.5879 307.241 42.7124C307.279 42.8369 307.278 42.9702 307.236 43.0937L306.008 46.831C305.934 47.1886 305.736 47.5096 305.448 47.7386C305.112 47.9395 304.719 48.027 304.328 47.9878H300.428C300.342 47.9832 300.258 47.9621 300.181 47.9257C300.104 47.8892 300.035 47.8381 299.978 47.7752C299.921 47.7124 299.877 47.6391 299.849 47.5595C299.821 47.48 299.809 47.3957 299.814 47.3115C299.814 47.2219 299.836 47.1335 299.876 47.0533C299.917 46.9731 299.976 46.9032 300.048 46.8488C300.247 46.6886 306.242 42.4175 306.242 42.4175" fill="white"/>
<path d="M292.913 41.3677C292.909 41.4416 292.93 41.5147 292.972 41.5758C293.014 41.6369 293.076 41.6826 293.147 41.7059C293.253 41.7411 293.367 41.7411 293.472 41.7059L295.603 40.1931C295.682 40.1351 295.746 40.0599 295.789 39.9734C295.833 39.8869 295.856 39.7915 295.856 39.6948V34.783L303.983 37.3813L294.249 44.3042C293.83 44.5591 293.487 44.9192 293.255 45.3476C293.024 45.776 292.912 46.2573 292.931 46.7423V52.3127C292.928 52.4389 292.951 52.5643 292.998 52.6818C293.045 52.7993 293.115 52.9066 293.203 52.9975C293.292 53.0883 293.398 53.1611 293.516 53.2115C293.633 53.262 293.76 53.2891 293.888 53.2915H306.529C307.425 53.3945 308.329 53.1631 309.061 52.6426C309.793 52.1222 310.3 51.3505 310.484 50.4796C310.646 49.9635 314.583 38.022 314.583 38.022C314.607 37.934 314.6 37.8408 314.564 37.757C314.528 37.6732 314.465 37.6036 314.385 37.5592L312.217 36.8652C312.126 36.8372 312.028 36.8459 311.943 36.8892C311.859 36.9325 311.795 37.0071 311.766 37.0965L307.956 48.6643C307.45 50.1415 306.998 50.3016 305.861 50.3016H295.928V47.6321C295.949 47.2941 296.067 46.9689 296.268 46.6947C296.47 46.4204 296.747 46.2085 297.066 46.0838L309.382 37.1855C309.545 37.059 309.652 36.8746 309.679 36.6717C309.706 36.4688 309.651 36.2636 309.527 36.0999C309.428 35.9814 309.296 35.8946 309.147 35.8508L293.075 30.7253V41.2965" fill="white"/>
<path d="M309.004 19.5491C308.964 19.4183 308.965 19.2786 309.007 19.1484C309.049 19.0181 309.13 18.9035 309.239 18.8194C309.347 18.7427 309.476 18.7014 309.609 18.7014C309.742 18.7014 309.872 18.7427 309.979 18.8194L313.212 21.1686C313.524 21.3589 313.769 21.6382 313.916 21.9694C314.003 22.3525 313.958 22.7529 313.79 23.1084C313.79 23.1084 312.67 26.5076 312.598 26.7567C312.549 26.8806 312.464 26.987 312.352 27.0621C312.241 27.1371 312.11 27.1773 311.975 27.1773C311.84 27.1773 311.708 27.1371 311.597 27.0621C311.486 26.987 311.401 26.8806 311.352 26.7567L309.004 19.6381" fill="white"/>
<path d="M303.893 31.7397C303.949 31.7828 304.02 31.8038 304.091 31.7986C304.162 31.7934 304.229 31.7624 304.278 31.7115C304.328 31.6606 304.356 31.5935 304.359 31.5231C304.361 31.4527 304.336 31.3841 304.29 31.3304C304.29 31.2414 303.55 29.0702 303.477 28.8389C303.449 28.7482 303.398 28.6661 303.328 28.6007C303.259 28.5352 303.173 28.4885 303.08 28.4651L298.403 26.9524L303.423 20.1541C303.423 20.1541 306.872 30.6363 307.143 31.4372C307.267 31.9045 307.512 32.3321 307.854 32.6784C308.196 33.0246 308.623 33.2776 309.094 33.4126L314.511 35.1923C314.63 35.2347 314.756 35.2536 314.882 35.2479C315.008 35.2422 315.131 35.212 315.245 35.1591C315.36 35.1062 315.462 35.0315 315.547 34.9395C315.631 34.8475 315.697 34.7398 315.739 34.6228C315.884 34.1779 319.351 23.6778 319.64 22.7702C320.015 21.9612 320.07 21.0429 319.792 20.1964C319.515 19.3498 318.926 18.6363 318.141 18.1965L307.432 10.4905C307.366 10.4305 307.279 10.3972 307.188 10.3972C307.098 10.3972 307.011 10.4305 306.945 10.4905L305.608 12.2702C305.552 12.3507 305.529 12.4499 305.546 12.5464C305.563 12.643 305.618 12.7291 305.699 12.7863L315.685 19.905C316.949 20.8304 316.967 21.3109 316.624 22.3787C316.371 23.0906 313.554 31.6507 313.554 31.6685L311.008 30.8677C310.676 30.7635 310.382 30.5669 310.161 30.3017C309.94 30.0364 309.801 29.7138 309.762 29.3728L305.048 15.1355C305.014 15.0409 304.961 14.9541 304.892 14.8802C304.824 14.8063 304.74 14.7468 304.648 14.7053C304.555 14.6638 304.455 14.6411 304.353 14.6385C304.251 14.636 304.15 14.6537 304.055 14.6905C303.911 14.7423 303.785 14.8352 303.694 14.9575L293.689 28.4473L303.893 31.7041" fill="white"/>
<path d="M314.944 6.78896H314.096V1.91269C314.507 1.84166 314.924 1.80593 315.342 1.80591C316.642 1.80591 317.346 2.3754 317.346 3.40761C317.362 3.72144 317.277 4.03216 317.101 4.2946C316.926 4.55705 316.67 4.75754 316.371 4.86693L317.834 6.78896H316.805L315.468 5.0093H314.908L314.944 6.78896ZM314.944 4.36862H315.378C316.046 4.36862 316.479 4.06608 316.479 3.4432C316.479 2.82032 316.082 2.55337 315.342 2.55337H314.944V4.36862Z" fill="white"/>
<path d="M315.522 8.87059C314.636 8.87059 313.77 8.61174 313.033 8.12677C312.297 7.6418 311.723 6.95249 311.384 6.14602C311.045 5.33955 310.956 4.45213 311.129 3.59598C311.302 2.73983 311.728 1.95341 312.355 1.33616C312.981 0.718913 313.779 0.298563 314.648 0.128264C315.517 -0.0420341 316.417 0.0453699 317.235 0.379422C318.054 0.713474 318.753 1.27917 319.245 2.00498C319.737 2.73078 320 3.5841 320 4.45702C320 5.62757 319.528 6.75018 318.688 7.57788C317.848 8.40559 316.709 8.87059 315.522 8.87059ZM315.522 0.773121C314.782 0.773121 314.059 0.989178 313.445 1.39397C312.83 1.79876 312.351 2.37411 312.068 3.04725C311.785 3.7204 311.711 4.46111 311.855 5.17572C311.999 5.89032 312.355 6.54673 312.878 7.06194C313.401 7.57714 314.067 7.928 314.792 8.07014C315.517 8.21228 316.269 8.13933 316.952 7.8605C317.635 7.58168 318.219 7.1095 318.63 6.50369C319.041 5.89788 319.26 5.18563 319.26 4.45702C319.26 3.47999 318.866 2.54298 318.165 1.85211C317.464 1.16124 316.513 0.773121 315.522 0.773121Z" fill="white"/>
<path d="M60.6035 79.7079V65.0066C62.1101 64.8038 63.3656 64.7024 64.37 64.7024C66.1977 64.7024 67.6014 65.0431 68.5811 65.7247C69.569 66.3981 70.063 67.4284 70.063 68.8158C70.063 69.7083 69.7872 70.4547 69.2356 71.0551C68.6922 71.6473 67.9883 72.0043 67.1239 72.126C68.2189 72.2153 69.0915 72.5723 69.7419 73.197C70.3923 73.8136 70.7175 74.6452 70.7175 75.6918C70.7175 77.0467 70.1783 78.1014 69.0998 78.856C68.0295 79.6024 66.3665 79.9756 64.1107 79.9756C62.9828 79.9756 61.8137 79.8864 60.6035 79.7079ZM63.0981 77.8094C63.5838 77.858 64.0325 77.8824 64.4441 77.8824C66.8893 77.8824 68.1118 77.1116 68.1118 75.5701C68.1118 74.0935 66.9798 73.3552 64.7158 73.3552H63.0981V77.8094ZM63.0981 71.2863H64.3206C65.3662 71.2863 66.1565 71.0916 66.6917 70.7022C67.235 70.3046 67.5067 69.7245 67.5067 68.9619C67.5067 68.256 67.2433 67.7246 66.7164 67.3676C66.1977 67.0025 65.465 66.82 64.5182 66.82C64.1148 66.82 63.6414 66.8524 63.0981 66.9173V71.2863Z" fill="#F9BB00"/>
<path d="M73.2615 74.6939V64.9458H75.8424V74.2436C75.8424 74.9332 75.9289 75.5174 76.1018 75.9961C76.2829 76.4747 76.5422 76.8479 76.8798 77.1157C77.2255 77.3753 77.6166 77.5619 78.0529 77.6755C78.4893 77.781 78.9997 77.8337 79.5842 77.8337C80.5722 77.8337 81.5601 77.7526 82.5481 77.5903V64.9458H85.129V79.3306C84.4293 79.5172 83.5525 79.6754 82.4987 79.8052C81.4449 79.935 80.4734 80 79.5842 80C78.868 80 78.2094 79.9472 77.6084 79.8417C77.0156 79.7444 76.4434 79.5699 75.8918 79.3184C75.3402 79.0588 74.8751 78.7343 74.4964 78.3448C74.1177 77.9473 73.8172 77.4402 73.5949 76.8236C73.3726 76.207 73.2615 75.4971 73.2615 74.6939Z" fill="#F9BB00"/>
<path d="M87.8212 68.8645C87.8212 67.9964 88.0393 67.2418 88.4757 66.6009C88.9202 65.9599 89.5007 65.4853 90.2169 65.177C90.9332 64.8606 91.7276 64.7024 92.6003 64.7024C94.0328 64.7024 95.313 65.0756 96.4409 65.822V68.3655C95.1978 67.3676 93.9423 66.8686 92.6744 66.8686C91.9582 66.8686 91.3901 67.0471 90.9702 67.4041C90.5503 67.753 90.3404 68.2154 90.3404 68.7915C90.3404 69.3594 90.5462 69.8056 90.9579 70.1302C91.3777 70.4466 92.094 70.763 93.1066 71.0794C94.605 71.5256 95.6794 72.0976 96.3298 72.7954C96.9802 73.485 97.3054 74.4505 97.3054 75.6918C97.3054 76.6492 97.0625 77.4605 96.5768 78.1258C96.091 78.783 95.4612 79.2616 94.6873 79.5618C93.9134 79.8539 93.0243 80 92.0199 80C90.4392 80 89.1055 79.6349 88.0188 78.9047V76.3125C88.6691 76.7993 89.3072 77.1765 89.9329 77.4443C90.5586 77.7039 91.2419 77.8337 91.9829 77.8337C92.7979 77.8337 93.4648 77.6674 93.9834 77.3347C94.5103 76.994 94.7738 76.4707 94.7738 75.7648C94.7738 75.132 94.5515 74.6493 94.1069 74.3166C93.6623 73.9759 92.9667 73.6635 92.0199 73.3795C91.0237 73.0631 90.2293 72.7224 89.6365 72.3573C89.0437 71.984 88.5909 71.5135 88.2781 70.9455C87.9735 70.3776 87.8212 69.6839 87.8212 68.8645Z" fill="#F9BB00"/>
<path d="M100.072 79.7566V64.9458H102.64V79.7566H100.072Z" fill="#F9BB00"/>
<path d="M106.394 79.7566V64.9458H109.025L116.582 75.8987V64.9458H119.089V79.7566H116.607L108.889 68.9132V79.7566H106.394Z" fill="#F9BB00"/>
<path d="M122.844 79.7566V64.9458H132.019V67.1972H125.387V71.1768H131.537V73.3795H125.387V77.5173H132.167V79.7566H122.844Z" fill="#F9BB00"/>
<path d="M134.427 68.8645C134.427 67.9964 134.645 67.2418 135.082 66.6009C135.526 65.9599 136.107 65.4853 136.823 65.177C137.539 64.8606 138.334 64.7024 139.206 64.7024C140.639 64.7024 141.919 65.0756 143.047 65.822V68.3655C141.804 67.3676 140.548 66.8686 139.28 66.8686C138.564 66.8686 137.996 67.0471 137.576 67.4041C137.156 67.753 136.946 68.2154 136.946 68.7915C136.946 69.3594 137.152 69.8056 137.564 70.1302C137.984 70.4466 138.7 70.763 139.713 71.0794C141.211 71.5256 142.285 72.0976 142.936 72.7954C143.586 73.485 143.911 74.4505 143.911 75.6918C143.911 76.6492 143.668 77.4605 143.183 78.1258C142.697 78.783 142.067 79.2616 141.293 79.5618C140.519 79.8539 139.63 80 138.626 80C137.045 80 135.711 79.6349 134.625 78.9047V76.3125C135.275 76.7993 135.913 77.1765 136.539 77.4443C137.164 77.7039 137.848 77.8337 138.589 77.8337C139.404 77.8337 140.071 77.6674 140.589 77.3347C141.116 76.994 141.38 76.4707 141.38 75.7648C141.38 75.132 141.157 74.6493 140.713 74.3166C140.268 73.9759 139.573 73.6635 138.626 73.3795C137.63 73.0631 136.835 72.7224 136.242 72.3573C135.65 71.984 135.197 71.5135 134.884 70.9455C134.579 70.3776 134.427 69.6839 134.427 68.8645Z" fill="#F9BB00"/>
<path d="M145.69 68.8645C145.69 67.9964 145.908 67.2418 146.344 66.6009C146.789 65.9599 147.369 65.4853 148.085 65.177C148.802 64.8606 149.596 64.7024 150.469 64.7024C151.901 64.7024 153.181 65.0756 154.309 65.822V68.3655C153.066 67.3676 151.811 66.8686 150.543 66.8686C149.827 66.8686 149.258 67.0471 148.839 67.4041C148.419 67.753 148.209 68.2154 148.209 68.7915C148.209 69.3594 148.415 69.8056 148.826 70.1302C149.246 70.4466 149.962 70.763 150.975 71.0794C152.473 71.5256 153.548 72.0976 154.198 72.7954C154.849 73.485 155.174 74.4505 155.174 75.6918C155.174 76.6492 154.931 77.4605 154.445 78.1258C153.959 78.783 153.33 79.2616 152.556 79.5618C151.782 79.8539 150.893 80 149.888 80C148.308 80 146.974 79.6349 145.887 78.9047V76.3125C146.538 76.7993 147.176 77.1765 147.801 77.4443C148.427 77.7039 149.11 77.8337 149.851 77.8337C150.666 77.8337 151.333 77.6674 151.852 77.3347C152.379 76.994 152.642 76.4707 152.642 75.7648C152.642 75.132 152.42 74.6493 151.975 74.3166C151.531 73.9759 150.835 73.6635 149.888 73.3795C148.892 73.0631 148.098 72.7224 147.505 72.3573C146.912 71.984 146.459 71.5135 146.146 70.9455C145.842 70.3776 145.69 69.6839 145.69 68.8645Z" fill="#F9BB00"/>
</svg>
